<svg xmlns="http://www.w3.org/2000/svg" viewBox="0 0 131.01 131.09"><defs><style>.cls-1{opacity:0.9;}.cls-2{fill:none;stroke:#000;stroke-miterlimit:10;}</style></defs><g id="圖層_2" data-name="圖層 2"><g id="Graphic_Elements" data-name="Graphic Elements"><g class="cls-1"><ellipse class="cls-2" cx="65.5" cy="65.54" rx="65" ry="65.04"/><path class="cls-2" d="M129,64.14a70.38,70.38,0,0,1-.45,9.58,58.56,58.56,0,0,1-7.2,21.81,77.87,77.87,0,0,1-8.55,12,59.61,59.61,0,0,1-10.88,10,56.73,56.73,0,0,1-15.84,7.89A59.53,59.53,0,0,1,74,127.92a66.36,66.36,0,0,1-8,.28,75,75,0,0,1-10.86-1c-2-.35-4.06-.77-6-1.29a59.58,59.58,0,0,1-25.33-13.46A74.78,74.78,0,0,1,11.11,97.09a64.87,64.87,0,0,1-4.89-9.62A55.36,55.36,0,0,1,3.47,78.8,57.26,57.26,0,0,1,2.08,65,70.92,70.92,0,0,1,3.17,54a65.26,65.26,0,0,1,11-26.93,60.24,60.24,0,0,1,14.3-14,64.4,64.4,0,0,1,18-8.75,69.52,69.52,0,0,1,19.29-3A62.15,62.15,0,0,1,119,29.82,65.09,65.09,0,0,1,129,64.14Z"/><path class="cls-2" d="M127.53,62.74a76.77,76.77,0,0,1-.17,9.38,53.16,53.16,0,0,1-6.84,21.6,98.58,98.58,0,0,1-8.34,12,54.56,54.56,0,0,1-10.26,10.1,50,50,0,0,1-15.62,7.85,55.21,55.21,0,0,1-11.92,2.14,70.77,70.77,0,0,1-7.85,0,86.68,86.68,0,0,1-10.61-1.12q-3-.5-5.94-1.2c-9.28-2.32-18-6.41-24.85-12.92a81.42,81.42,0,0,1-6.07-6.51,87.71,87.71,0,0,1-6.36-8.49,65.28,65.28,0,0,1-5-9.21A48.21,48.21,0,0,1,4.91,78,50.9,50.9,0,0,1,3.66,64.43,76.38,76.38,0,0,1,4.88,53.68C6.66,43.92,9.78,35,15.29,27.14a55.35,55.35,0,0,1,14.1-13.71,63.78,63.78,0,0,1,17.8-8.34,75.49,75.49,0,0,1,19-3,59.4,59.4,0,0,1,51.77,27.27C124.06,39,127.15,50.5,127.53,62.74Z"/><path class="cls-2" d="M126,61.34a83.31,83.31,0,0,1,.11,9.19,48.5,48.5,0,0,1-6.48,21.37,141,141,0,0,1-8.12,11.9A50.11,50.11,0,0,1,101.9,114a44.49,44.49,0,0,1-15.4,7.81,51.16,51.16,0,0,1-11.77,1.83,71.07,71.07,0,0,1-7.69-.19c-3.48-.23-7-.64-10.37-1.2-2-.32-3.92-.68-5.82-1.13-9.09-2.11-17.76-5.85-24.38-12.38-2-2-4-4.19-5.85-6.44-2.24-2.68-4.4-5.41-6.32-8.22a64.88,64.88,0,0,1-5.05-8.8,42.62,42.62,0,0,1-2.91-8.14,45.34,45.34,0,0,1-1.1-13.24A85.21,85.21,0,0,1,6.59,53.35C8.38,43.76,11,35,16.37,27.2a51.23,51.23,0,0,1,13.9-13.4A63.58,63.58,0,0,1,47.84,5.88a83.54,83.54,0,0,1,18.61-3A56.54,56.54,0,0,1,95.24,9.18a55.81,55.81,0,0,1,21.55,19.67C122.74,38.29,125.47,49.48,126,61.34Z"/><path class="cls-2" d="M124.55,59.94c.21,3.11.48,6,.39,9a44.46,44.46,0,0,1-6.12,21.15c-2.53,4.25-5.34,8-7.91,11.82a45.46,45.46,0,0,1-9,10.25,40.1,40.1,0,0,1-15.17,7.78,46.86,46.86,0,0,1-11.62,1.52c-2.49,0-5-.19-7.52-.43-3.39-.3-6.78-.75-10.14-1.29-1.93-.31-3.84-.63-5.71-1-8.88-1.94-17.51-5.29-23.89-11.84-2-2-3.81-4.17-5.64-6.38-2.18-2.63-4.35-5.26-6.29-8a66.43,66.43,0,0,1-5.12-8.39,36.49,36.49,0,0,1-3-7.87,40.1,40.1,0,0,1-1-13A93,93,0,0,1,8.3,53c1.8-9.43,4-18.06,9.15-25.76A47,47,0,0,1,31.16,14.18,62.76,62.76,0,0,1,48.5,6.67a93.34,93.34,0,0,1,18.27-3A54,54,0,0,1,94.69,9.38a52.83,52.83,0,0,1,21,19C121.42,37.56,123.8,48.46,124.55,59.94Z"/><path class="cls-2" d="M123.07,58.53c.25,3.06.65,5.91.67,8.81A41,41,0,0,1,118,88.27c-2.55,4.22-5.32,7.88-7.69,11.75a41.67,41.67,0,0,1-8.43,10.33,36.17,36.17,0,0,1-15,7.74,43,43,0,0,1-11.46,1.21c-2.44-.06-4.85-.36-7.36-.66-3.28-.38-6.6-.86-9.9-1.37-1.89-.3-3.76-.59-5.59-1C43.9,114.55,35.3,111.58,29.16,105c-1.88-2-3.63-4.15-5.42-6.32-2.13-2.58-4.3-5.12-6.25-7.68a66.57,66.57,0,0,1-5.2-8,32.12,32.12,0,0,1-3.07-7.6A35.84,35.84,0,0,1,8.4,62.76c.34-3.4,1-6.73,1.61-10.06C11.82,43.43,13.5,35,18.54,27.32A43.25,43.25,0,0,1,32.05,14.55a62.59,62.59,0,0,1,17.1-7.09,108.43,108.43,0,0,1,17.94-3A51.21,51.21,0,0,1,94.14,9.59a49.68,49.68,0,0,1,20.41,18.3C120.1,36.84,122.13,47.44,123.07,58.53Z"/><path class="cls-2" d="M121.58,57.13c.31,3,.83,5.77,1,8.62a37.56,37.56,0,0,1-5.41,20.71c-2.57,4.18-5.31,7.75-7.48,11.67a37.91,37.91,0,0,1-7.81,10.4,33,33,0,0,1-14.74,7.71,40.21,40.21,0,0,1-11.31.91c-2.39-.15-4.74-.54-7.2-.89-3.18-.46-6.42-1-9.65-1.47-1.86-.29-3.69-.55-5.49-.88-8.47-1.57-17-4.16-22.94-10.76-1.79-2-3.46-4.11-5.2-6.24-2.08-2.54-4.25-5-6.21-7.42a65.72,65.72,0,0,1-5.28-7.57,29.18,29.18,0,0,1-3.16-7.33A32.8,32.8,0,0,1,10,62.2c.41-3.31,1.09-6.56,1.74-9.83,1.82-9.1,3-17.42,7.9-25A40.06,40.06,0,0,1,32.93,14.92,62.34,62.34,0,0,1,49.81,8.25a131.1,131.1,0,0,1,17.59-3A48.65,48.65,0,0,1,93.59,9.79a46.78,46.78,0,0,1,19.84,17.62C118.78,36.12,120.47,46.42,121.58,57.13Z"/><path class="cls-2" d="M120.09,55.73c.37,3,1,5.64,1.23,8.43a34.67,34.67,0,0,1-5,20.48c-2.59,4.16-5.29,7.64-7.27,11.6a34.54,34.54,0,0,1-7.2,10.48,30.17,30.17,0,0,1-14.51,7.68,37,37,0,0,1-11.16.59c-2.35-.22-4.62-.71-7-1.12-3.08-.53-6.25-1.08-9.42-1.56-1.82-.27-3.62-.5-5.38-.79-8.26-1.4-16.79-3.6-22.45-10.22-1.71-2-3.29-4.09-5-6.18-2-2.49-4.2-4.84-6.18-7.15a67.78,67.78,0,0,1-5.35-7.17,25.65,25.65,0,0,1-3.24-7.06,29.48,29.48,0,0,1-.53-12.1c.48-3.23,1.21-6.39,1.87-9.6C15.26,43.11,16,35,20.7,27.43A37.25,37.25,0,0,1,33.82,15.29,62.1,62.1,0,0,1,50.47,9,168.45,168.45,0,0,1,67.72,6,46.2,46.2,0,0,1,93,10a44.1,44.1,0,0,1,19.28,16.94C117.46,35.4,118.81,45.4,120.09,55.73Z"/><path class="cls-2" d="M118.6,54.33c.42,2.91,1.2,5.5,1.51,8.23a32.13,32.13,0,0,1-4.69,20.27c-2.61,4.12-5.28,7.51-7,11.53-1.66,3.77-3.33,7.3-6.59,10.55a27.71,27.71,0,0,1-14.29,7.64,34.39,34.39,0,0,1-11,.29c-2.29-.31-4.5-.89-6.86-1.36-3-.6-6.07-1.19-9.18-1.64-1.78-.26-3.54-.46-5.26-.72-8.06-1.21-16.55-3-22-9.67-1.62-2-3.11-4.07-4.77-6.12-2-2.44-4.16-4.69-6.14-6.88a67.5,67.5,0,0,1-5.43-6.76,22.79,22.79,0,0,1-3.32-6.79,26.62,26.62,0,0,1-.39-11.82c.55-3.14,1.34-6.22,2-9.36C17,43,17.24,35,21.79,27.49A34.36,34.36,0,0,1,34.7,15.67,62,62,0,0,1,51.12,9.83C56.6,8.61,62.42,7.6,68,6.76A43.69,43.69,0,0,1,92.49,10.2,41.21,41.21,0,0,1,111.2,26.45C116.14,34.67,117.15,44.38,118.6,54.33Z"/><path class="cls-2" d="M117.11,52.93c.48,2.86,1.38,5.36,1.79,8a29.67,29.67,0,0,1-4.33,20c-2.63,4.1-5.27,7.39-6.84,11.46-1.45,3.77-2.83,7.33-6,10.63a25.56,25.56,0,0,1-14.07,7.61,32,32,0,0,1-10.87,0c-2.24-.38-4.39-1.05-6.7-1.59-2.87-.67-5.89-1.29-8.94-1.73-1.74-.25-3.46-.41-5.15-.63-7.85-1-16.31-2.47-21.5-9.14-1.53-2-2.94-4-4.56-6-1.92-2.4-4.1-4.55-6.1-6.61a67.44,67.44,0,0,1-5.5-6.35A20.25,20.25,0,0,1,15,72.06a24.06,24.06,0,0,1-.25-11.53c.61-3.06,1.46-6.05,2.13-9.14,1.85-8.6,1.63-16.44,6-23.84A31.94,31.94,0,0,1,35.59,16a61.73,61.73,0,0,1,16.19-5.42C57.16,9.49,62.89,8.5,68.35,7.55A41.36,41.36,0,0,1,91.94,10.4,38.66,38.66,0,0,1,110.08,26C114.82,34,115.51,43.36,117.11,52.93Z"/><path class="cls-2" d="M115.62,51.52c.54,2.81,1.56,5.23,2.07,7.85a27.64,27.64,0,0,1-4,19.83c-2.65,4.06-5.27,7.25-6.63,11.38-1.23,3.76-2.33,7.36-5.36,10.71a23.57,23.57,0,0,1-13.85,7.57,29.73,29.73,0,0,1-10.71-.33c-2.2-.47-4.27-1.23-6.53-1.83a72.41,72.41,0,0,0-8.7-1.81c-1.7-.24-3.39-.37-5-.55-7.64-.86-16.08-1.9-21-8.6-1.45-1.95-2.77-4-4.35-6a64.42,64.42,0,0,0-6.06-6.34,71.07,71.07,0,0,1-5.58-6,18.46,18.46,0,0,1-3.49-6.25A21.94,21.94,0,0,1,16.3,60c.68-3,1.59-5.88,2.26-8.91C20.42,42.62,19.73,35,24,27.61c2.82-4.91,7.52-8.69,12.52-11.2a61.76,61.76,0,0,1,16-5c5.3-1,10.93-2,16.24-3.08A39.05,39.05,0,0,1,91.39,10.6,36,36,0,0,1,109,25.49C113.5,33.23,113.87,42.35,115.62,51.52Z"/><path class="cls-2" d="M114.13,50.12c.6,2.76,1.74,5.1,2.35,7.66a25.8,25.8,0,0,1-3.61,19.6c-2.67,4-5.26,7.13-6.41,11.31-1,3.75-1.84,7.39-4.75,10.79A21.82,21.82,0,0,1,88.08,107a27.53,27.53,0,0,1-10.56-.64c-2.15-.55-4.16-1.39-6.37-2.06a54,54,0,0,0-8.46-1.9c-1.66-.22-3.32-.32-4.93-.47-7.43-.68-15.83-1.33-20.54-8-1.36-1.94-2.6-4-4.13-5.92a48.69,48.69,0,0,0-6-6.07,72.27,72.27,0,0,1-5.66-5.54,16.52,16.52,0,0,1-3.57-6,19.82,19.82,0,0,1,.05-11c.73-2.89,1.71-5.71,2.38-8.67C22.14,42.46,21,35,25,27.67c2.71-4.85,7.38-8.52,12.32-10.89A62,62,0,0,1,53.09,12.2c5.2-.95,10.73-1.91,15.89-3.09a36.77,36.77,0,0,1,21.87,1.7,33.61,33.61,0,0,1,17,14.19C112.18,32.51,112.23,41.33,114.13,50.12Z"/><path class="cls-2" d="M112.65,48.72c.65,2.71,1.91,5,2.62,7.46A24.08,24.08,0,0,1,112,75.57c-2.69,4-5.26,7-6.2,11.23-.82,3.74-1.35,7.42-4.13,10.87a20.32,20.32,0,0,1-13.41,7.5,25.91,25.91,0,0,1-10.41-1c-2.1-.63-4.05-1.57-6.21-2.3a43.11,43.11,0,0,0-8.22-2c-1.62-.22-3.24-.28-4.82-.39C51.4,99,43,98.79,38.56,92c-1.27-1.92-2.42-4-3.91-5.85a38.43,38.43,0,0,0-6-5.8,74.08,74.08,0,0,1-5.73-5.14,14.73,14.73,0,0,1-3.65-5.71,18.06,18.06,0,0,1,.19-10.68c.8-2.8,1.83-5.54,2.5-8.44,1.89-8.11.25-15.45,4.15-22.68,2.59-4.79,7.24-8.36,12.13-10.57S48.34,13.89,53.74,13c5.12-.85,10.55-1.79,15.56-3.09A34.67,34.67,0,0,1,90.3,11a31.15,31.15,0,0,1,16.42,13.51C110.86,31.78,110.6,40.31,112.65,48.72Z"/><path class="cls-2" d="M111.16,47.32c.72,2.66,2.09,4.82,2.9,7.27a22.55,22.55,0,0,1-2.89,19.17c-2.71,4-5.27,6.85-6,11.16-.63,3.72-.86,7.44-3.53,10.94a18.89,18.89,0,0,1-13.18,7.46,24.13,24.13,0,0,1-10.26-1.26c-2.06-.71-3.93-1.73-6-2.53a35.36,35.36,0,0,0-8-2.07c-1.58-.2-3.16-.23-4.7-.31-7-.33-15.37-.18-19.58-7a64,64,0,0,0-3.7-5.79,31.48,31.48,0,0,0-5.95-5.53,72.54,72.54,0,0,1-5.81-4.73,13.31,13.31,0,0,1-3.73-5.44,16.45,16.45,0,0,1,.33-10.39c.86-2.72,2-5.38,2.63-8.22,1.91-7.94-.22-15.11,3.53-22.29,2.46-4.73,7.09-8.19,11.92-10.26s10-3,15.27-3.76a116.43,116.43,0,0,0,15.21-3.09,32.49,32.49,0,0,1,20.14.53A28.86,28.86,0,0,1,105.6,24C109.54,31.06,109,39.29,111.16,47.32Z"/><path class="cls-2" d="M109.67,45.92c.79,2.61,2.28,4.68,3.19,7.08a21.17,21.17,0,0,1-2.54,18.94c-2.73,3.94-5.27,6.73-5.77,11.09-.42,3.71-.36,7.47-2.91,11a17.63,17.63,0,0,1-13,7.42,22.64,22.64,0,0,1-10.11-1.56c-2-.8-3.82-1.9-5.88-2.77A29.14,29.14,0,0,0,65,95c-1.55-.18-3.09-.19-4.6-.22-6.81-.16-15.13.39-19.1-6.43a50.33,50.33,0,0,0-3.48-5.73,25.88,25.88,0,0,0-5.92-5.26C29.8,75.92,27.85,74.6,26,73a12.19,12.19,0,0,1-3.82-5.17c-1.11-3-.78-6.57.48-10.11a84.32,84.32,0,0,0,2.76-8C27.31,42,24.71,35,28.29,27.84c2.35-4.67,7-8,11.73-9.94s9.83-2.63,15-3.34a84,84,0,0,0,14.88-3.1,30.46,30.46,0,0,1,19.27,0,26.63,26.63,0,0,1,15.28,12.14C108.22,30.34,107.36,38.27,109.67,45.92Z"/><path class="cls-2" d="M108.18,44.51c.86,2.56,2.46,4.56,3.47,6.89a20,20,0,0,1-2.18,18.73c-2.75,3.9-5.28,6.59-5.56,11-.22,3.7.14,7.5-2.29,11.09a16.51,16.51,0,0,1-12.74,7.4,21.39,21.39,0,0,1-10-1.88c-2-.88-3.7-2.06-5.71-3a24.4,24.4,0,0,0-7.5-2.25,35.53,35.53,0,0,0-4.48-.14c-6.61,0-14.91,1-18.63-5.89a40.75,40.75,0,0,0-3.26-5.66,21.66,21.66,0,0,0-5.88-5c-2.07-1.3-4.05-2.46-6-3.91A11.14,11.14,0,0,1,23.59,67c-1.12-2.93-.73-6.37.62-9.82a65.25,65.25,0,0,0,2.89-7.75C29,41.81,26,35,29.37,27.9c2.23-4.61,6.81-7.85,11.54-9.62S50.6,16,55.71,15.35a64.51,64.51,0,0,0,14.54-3.11,28.54,28.54,0,0,1,18.4-.62,24.51,24.51,0,0,1,14.71,11.46C106.9,29.62,105.75,37.25,108.18,44.51Z"/><path class="cls-2" d="M106.69,43.11c.93,2.51,2.64,4.42,3.75,6.7a18.79,18.79,0,0,1-1.82,18.5c-2.78,3.87-5.3,6.46-5.34,10.94,0,3.69.63,7.53-1.69,11.17a15.45,15.45,0,0,1-12.52,7.36,20.1,20.1,0,0,1-9.81-2.19c-1.91-1-3.59-2.21-5.54-3.22A21,21,0,0,0,66.45,90,31.94,31.94,0,0,0,62.08,90c-6.4.19-14.68,1.55-18.14-5.35a35,35,0,0,0-3-5.59A18.56,18.56,0,0,0,35,74.3C33,73.13,31,72.12,29,70.8a10.23,10.23,0,0,1-4-4.64c-1.13-2.82-.68-6.18.76-9.54a51.78,51.78,0,0,0,3-7.52C30.75,41.65,27.2,35,30.46,28c2.11-4.55,6.66-7.69,11.33-9.31s9.57-2,14.57-2.51A51.45,51.45,0,0,0,70.56,13a26.69,26.69,0,0,1,17.54-1.2A22.49,22.49,0,0,1,102.25,22.6C105.58,28.89,104.15,36.23,106.69,43.11Z"/><path class="cls-2" d="M105.2,41.71c1,2.45,2.82,4.28,4,6.5a17.75,17.75,0,0,1-1.46,18.29c-2.8,3.83-5.32,6.33-5.13,10.86.16,3.69,1.13,7.56-1.07,11.25a14.54,14.54,0,0,1-12.3,7.33,19.15,19.15,0,0,1-9.66-2.5c-1.86-1-3.48-2.38-5.38-3.46a18.14,18.14,0,0,0-7-2.42,25.24,25.24,0,0,0-4.26,0c-6.18.36-14.46,2.12-17.66-4.81a29.46,29.46,0,0,0-2.83-5.53,16,16,0,0,0-5.81-4.46c-2.09-1-4.15-1.9-6.12-3.09a9.53,9.53,0,0,1-4.06-4.37c-1.13-2.72-.63-6,.91-9.25a44.07,44.07,0,0,0,3.15-7.29c1.95-7.29-2.07-13.8,1-20.76,2-4.49,6.52-7.52,11.14-9S52.11,17.34,57,16.93a42.23,42.23,0,0,0,13.86-3.12A24.92,24.92,0,0,1,87.55,12a20.54,20.54,0,0,1,13.58,10.1C104.26,28.17,102.55,35.2,105.2,41.71Z"/><path class="cls-2" d="M103.71,40.31c1.08,2.4,3,4.15,4.31,6.31,3.18,5.24,2.81,12.74-1.11,18.06-2.81,3.81-5.33,6.21-4.91,10.8.35,3.67,1.62,7.58-.45,11.32a13.68,13.68,0,0,1-12.08,7.29A18,18,0,0,1,80,91.28c-1.81-1.12-3.37-2.54-5.22-3.69A15.92,15.92,0,0,0,68,85.08a22.07,22.07,0,0,0-4.15.1c-6,.53-14.25,2.71-17.19-4.26A24.94,24.94,0,0,0,44,75.45a14.12,14.12,0,0,0-5.77-4.19c-2.11-.92-4.2-1.62-6.2-2.69a8.72,8.72,0,0,1-4.14-4.09c-1.14-2.61-.58-5.8,1.05-9a37.13,37.13,0,0,0,3.28-7.06c2-7.12-2.53-13.47.39-20.37,1.88-4.43,6.38-7.36,10.94-8.69S52.87,18,57.67,17.72c4.58-.3,9.43-1,13.53-3.13A23.15,23.15,0,0,1,87,12.23a18.64,18.64,0,0,1,13,9.41C102.94,27.45,101,34.16,103.71,40.31Z"/><path class="cls-2" d="M102.22,38.9c1.16,2.35,3.17,4,4.59,6.13a15.87,15.87,0,0,1-.75,17.84c-2.83,3.77-5.36,6.08-4.69,10.72.53,3.67,2.11,7.61.15,11.4a12.84,12.84,0,0,1-11.85,7.25,17.28,17.28,0,0,1-9.36-3.11c-1.76-1.21-3.27-2.7-5-3.93a14.09,14.09,0,0,0-6.55-2.6,19.48,19.48,0,0,0-4,.19c-5.77.7-14,3.28-16.7-3.73a22.42,22.42,0,0,0-2.4-5.39,12.32,12.32,0,0,0-5.74-3.93c-2.12-.79-4.24-1.33-6.27-2.28a8.11,8.11,0,0,1-4.22-3.83c-1.16-2.5-.54-5.6,1.19-8.68,1.24-2.21,2.71-4.36,3.41-6.83,2-6.95-3-13.13-.23-20,1.75-4.37,6.23-7.19,10.74-8.37s9.17-1.05,13.88-1.26c4.49-.21,9.25-.9,13.18-3.14a21.6,21.6,0,0,1,14.94-2.94c5.22.9,10.1,4,12.44,8.72C101.62,26.73,99.37,33.13,102.22,38.9Z"/><path class="cls-2" d="M100.74,37.5c1.23,2.28,3.34,3.88,4.86,5.93a15.09,15.09,0,0,1-.39,17.62c-2.85,3.75-5.39,6-4.48,10.65.71,3.67,2.61,7.64.77,11.48A12.15,12.15,0,0,1,89.87,90.4,16.58,16.58,0,0,1,80.66,87c-1.71-1.29-3.16-2.85-4.89-4.16a12.43,12.43,0,0,0-6.31-2.68,16.11,16.11,0,0,0-3.92.27c-5.57.86-13.82,3.86-16.23-3.19-.62-1.81-1-3.75-2.18-5.33a10.83,10.83,0,0,0-5.7-3.65c-2.13-.68-4.29-1-6.35-1.88a7.62,7.62,0,0,1-4.3-3.56c-1.17-2.39-.5-5.42,1.33-8.39,1.3-2.13,2.84-4.2,3.54-6.6,2-6.79-3.43-12.8-.86-19.6,1.65-4.3,6.1-7,10.55-8.06s9-.72,13.64-.84c4.41-.11,9.09-.75,12.85-3.14,4.29-2.74,8.74-4.24,14.07-3.53,5,.68,9.71,3.52,11.87,8C100.3,26,97.79,32.08,100.74,37.5Z"/><path class="cls-2" d="M99.25,36.1c1.32,2.22,3.53,3.75,5.14,5.74a14.36,14.36,0,0,1,0,17.4c-2.87,3.71-5.42,5.84-4.26,10.57.89,3.67,3.1,7.67,1.38,11.56a11.48,11.48,0,0,1-11.42,7.18,15.9,15.9,0,0,1-9-3.73c-1.67-1.38-3.06-3-4.73-4.4a11.21,11.21,0,0,0-6.07-2.77A14.4,14.4,0,0,0,66.4,78C61,79,52.79,82.44,50.65,75.36c-.54-1.8-.87-3.72-2-5.27A9.61,9.61,0,0,0,43,66.71c-2.14-.55-4.33-.76-6.42-1.47A7.21,7.21,0,0,1,32.21,62c-1.18-2.29-.44-5.23,1.48-8.11,1.37-2.05,3-4,3.67-6.37,2-6.63-3.9-12.47-1.48-19.22C37.4,24,41.83,21.4,46.22,20.51s8.92-.4,13.42-.43c4.31,0,8.92-.59,12.5-3.14,4-2.83,8.08-4.58,13.21-4.1,4.77.46,9.33,3.05,11.3,7.35C99,25.28,96.22,31,99.25,36.1Z"/><path class="cls-2" d="M33.65,61.11c.72,1.31,2.15,2.37,4.47,3,2.12.59,4.34.64,6.5,1.06a8.68,8.68,0,0,1,5.62,3.11c1.06,1.51,1.29,3.42,1.76,5.2,1.85,7.13,10.11,3.3,15.26,2.11A12.64,12.64,0,0,1,71,75.18,10,10,0,0,1,76.8,78c1.6,1.46,2.94,3.18,4.55,4.63a15.36,15.36,0,0,0,8.91,4c5.25.43,9.33-2.57,11.19-7.14,1.61-3.94-.92-8-2-11.64-1.4-4.77,1.16-6.82,4.05-10.5a13.68,13.68,0,0,0-.33-17.18c-1.71-1.93-4-3.39-5.42-5.54-3.11-4.73-.1-10.14-2.23-15C93.74,15.64,89.35,13.28,84.8,13c-4.93-.26-8.69,1.77-12.34,4.68-3.4,2.71-7.94,3.23-12.17,3.15-4.4-.07-8.84-.72-13.18,0S38.36,24.14,37,28.31C34.71,35,41.07,40.68,39.07,47.14c-.71,2.28-2.37,4.18-3.8,6.14C33.25,56.06,32.46,58.93,33.65,61.11Z"/></g></g></g></svg>