<svg xmlns="http://www.w3.org/2000/svg" viewBox="0 0 120.15 145.78"><defs><style>.cls-1{opacity:0.9;}.cls-2{fill:none;stroke:#000;stroke-miterlimit:10;stroke-width:0.6px;}</style></defs><g id="圖層_2" data-name="圖層 2"><g id="Graphic_Elements" data-name="Graphic Elements"><g class="cls-1"><ellipse class="cls-2" cx="60.08" cy="19.68" rx="19.37" ry="19.38"/><ellipse class="cls-2" cx="60.08" cy="22.83" rx="20.57" ry="20.56" transform="translate(37.07 82.83) rotate(-89.82)"/><ellipse class="cls-2" cx="60.08" cy="25.97" rx="21.92" ry="21.94" transform="translate(-0.05 0.11) rotate(-0.1)"/><ellipse class="cls-2" cx="60.08" cy="29.11" rx="23.43" ry="23.45" transform="translate(-0.06 0.12) rotate(-0.12)"/><ellipse class="cls-2" cx="60.08" cy="32.25" rx="25.06" ry="25.08"/><ellipse class="cls-2" cx="60.08" cy="35.39" rx="26.78" ry="26.8"/><ellipse class="cls-2" cx="60.08" cy="38.53" rx="28.59" ry="28.61"/><ellipse class="cls-2" cx="60.08" cy="41.67" rx="30.48" ry="30.46" transform="matrix(0, -1, 1, 0, 18.28, 101.67)"/><path class="cls-2" d="M88.17,60.93a32.39,32.39,0,1,1-12-44.23A32.37,32.37,0,0,1,88.17,60.93Z"/><ellipse class="cls-2" cx="60.08" cy="47.96" rx="34.35" ry="34.37"/><ellipse class="cls-2" cx="60.08" cy="51.1" rx="36.35" ry="36.38"/><ellipse class="cls-2" cx="60.08" cy="54.24" rx="38.39" ry="38.42"/><ellipse class="cls-2" cx="60.08" cy="57.38" rx="40.46" ry="40.49"/><ellipse class="cls-2" cx="60.08" cy="60.52" rx="42.54" ry="42.58"/><ellipse class="cls-2" cx="60.08" cy="63.66" rx="44.65" ry="44.68"/><ellipse class="cls-2" cx="60.08" cy="66.81" rx="46.77" ry="46.81"/><ellipse class="cls-2" cx="60.08" cy="69.95" rx="48.91" ry="48.95"/><ellipse class="cls-2" cx="60.08" cy="73.09" rx="51.07" ry="51.1"/><ellipse class="cls-2" cx="60.08" cy="76.23" rx="53.23" ry="53.27"/><ellipse class="cls-2" cx="60.08" cy="79.37" rx="55.4" ry="55.44"/><ellipse class="cls-2" cx="60.08" cy="82.51" rx="57.59" ry="57.63"/><ellipse class="cls-2" cx="60.08" cy="85.65" rx="59.78" ry="59.82"/></g></g></g></svg>