<svg xmlns="http://www.w3.org/2000/svg" viewBox="0 0 125.76 125.9"><defs><style>.cls-1{opacity:0.9;}.cls-2{fill:#fff;}</style></defs><g id="圖層_2" data-name="圖層 2"><g id="Graphic_Elements" data-name="Graphic Elements"><g class="cls-1"><path class="cls-2" d="M75.66,2.32l.87.11Z"/><path class="cls-2" d="M93.86,8.2l-1.59-.86h0l-.14-.07c-.16-.09-.33-.17-.5-.25l.33.16-.75-.4-1.12-.5.29.14C89,5.79,87.64,5.22,86.2,4.71c-6.11-1.44-12.42-2-23.27-2.22C83,3.48,90,6.35,92.27,7.34,92.81,7.62,93.34,7.9,93.86,8.2Z"/><path class="cls-2" d="M77.85,1.83,75.6,1.31l-.42-.09c-2.32-.36-6.92.36-12.25,1.27l1.37-.17C73.14,1.32,75.69,1.48,77.85,1.83Z"/><path class="cls-2" d="M71.34.58,69.1.31h0c-.13,0-.15,0-6.14,2.18C69.9.64,70.59.62,71.51.6Z"/><path class="cls-2" d="M41.59,122.2l.47.17c1.12.38,2.5.81,3.57,1.14s2.59.66,3.7.93c-14.52-3.55-26.9-11.5-36.81-23.64l2.79,3.44.94,1.05c1,1.07,2.26,2.32,3.5,3.51.77.7,1.73,1.55,3.05,2.72.68.55,1.48,1.16,2.3,1.77A62.84,62.84,0,0,0,41.59,122.2Z"/><path class="cls-2" d="M66.08.17l-.3-.1h0l-1.1,0L63.44,0c.74,0,.76.05,1.09.49-.21.75-.21.75-1.6,2C65.89.85,66,.53,66.08.17Z"/><path class="cls-2" d="M4.23,86c11.54,27.24,40.44,37.67,50.64,39.39l.15,0c.54.07,1.21.14,1.73.19l1.08.1h.05c-6-.56-47.43-12.77-56.75-50.37.1.56.2,1.1.3,1.61.69,2.62,1.75,6,2.65,8.66Z"/><path class="cls-2" d="M61.17.49c1.43.54,1.5.85,1.76,2C64,.15,61.81.1,59.89.06L57.66.21,57,.26A12.05,12.05,0,0,1,61.17.49Z"/><path class="cls-2" d="M61.51,125.88h.94c.27,0,.54,0,.81,0H64c-4.77-.09-73.16-26-62.11-78.65h0c-.38,1.48-.75,3.48-1.07,5C.48,54.14.23,56.72,0,58.64-1.11,105.88,55.25,125.27,61.51,125.88Z"/><path class="cls-2" d="M51.2,1.1l-.39.08c7.69-1.32,10.9.58,12.12,1.31C60.75.09,57,.14,51.2,1.1Z"/><path class="cls-2" d="M8,32c-27.77,53.55,50,91.36,59.34,93.71h.2l.4,0,.2,0,1.52-.15.19,0c-11-8.38-24.44-12.94-35.06-22C29.58,99.14,17.4,88.81,10.28,75-4,47.37,8.72,29.75,14.94,22.17l-.65.75-1,1.25c-1.64,2.26-3.71,5.36-5.19,7.75Z"/><path class="cls-2" d="M48.36,1.7l.11,0-.3.07c-.69.15-1.6.4-2.28.59-1.41.39-3.28,1-4.65,1.48-.83.32-2,.74-2.78,1.09-1,.42-2.28,1-3.25,1.48S32.91,7.53,32,8.09c-1.11.65-2.49,1.5-3.72,2.29C15.67,19,5.74,32.91,7.11,48.57c3.24,36.92,45.06,62.25,60.8,71.79,5.45,3.3,5.46,3.3,5.77,4.59l.11,0c.86-.16,1.95-.39,2.8-.57l.1,0c.3-.11.53-.55.74-.8-.72-1.37-2.12-2.36-9.69-7.32C48.26,103.46,28.66,88.78,17.22,68-8.59,21.05,41.48-3.23,62.93,2.49,58.77.88,53.71.7,48.36,1.7Z"/><path class="cls-2" d="M70.13,111C82,119.34,84.8,121.34,81.06,123.18l.12,0,1.87-.61,1.31-.46c5.3-2.47.68-5.88-10.37-14-12.22-9-27.43-20.2-40.34-36.58C-4.46,23.13,36.21-.8,62.93,2.49,32.57-4.09-32.75,38.27,70.13,111Z"/><path class="cls-2" d="M77.1,101.55c13.82,10.6,19,14.57,12.14,18.52l.16-.07c1.15-.55,2.58-1.3,3.68-1.87,5.35-3.13,3.21-6.75.11-10.21-13-14.46-30.27-24-43.59-38.13C6.75,24.42,35.5,1.86,62.93,2.49,35-.06-14.94,31,77.1,101.55Z"/><path class="cls-2" d="M87.78,92.79C101,103.34,105.64,109,98.61,114.71c1.21-.85,2.73-2,3.93-3,.6-.49,1.23-1,1.83-1.56,5.47-5,2.4-7.71-34.36-40.08-53.28-46.93-29.27-63.5-11.9-67C42.35,6.08-1.56,21.21,87.78,92.79Z"/><path class="cls-2" d="M62.23,2.55a36.25,36.25,0,0,0-4.12.6C60,2.8,61.42,2.63,62.23,2.55Z"/><path class="cls-2" d="M62.93,2.49l-.7.06Z"/><path class="cls-2" d="M85.32,72.13c21.85,17.57,30.05,25.61,22.94,34.35l.14-.15c1.12-1.2,2.46-2.79,3.51-4l.06-.08c6.22-8.16.28-16.73-25.37-36.66-66.9-52-31.45-61.68-23.67-63.1C57.26,3.21,9.69,11.26,85.32,72.13Z"/><path class="cls-2" d="M89.84,58.06c24.72,18.47,31.52,27.91,26.9,37.35l.55-.93.17-.29.36-.63,1.41-2.72.5-1c5.52-12.66-15.39-27.88-29.27-38C45.25,19,50.54,6.85,62.93,2.49,52.35,5.25,33.79,16.19,89.84,58.06Z"/><path class="cls-2" d="M91.05,43.73c21.58,15.2,34.51,25.37,31.82,38.06.13-.43.26-.86.38-1.29.43-1.58.86-3.36,1.21-4.78,1.85-12.64-11.2-22.27-32.64-36.95C77.65,29.08,51.28,11,62.93,2.49,44.66,11.05,79.57,35.65,91.05,43.73Z"/><path class="cls-2" d="M92.63,32.55c24.32,15.77,32.58,22.93,33,33.8l0-.65.08-2.65-.06-2.57c0-.3,0-.59,0-.88-.93-11.4-16.13-20.8-35.34-32.67C76.81,18.58,61.49,9.11,62.93,2.49,56.6,9.18,78.28,23.24,92.63,32.55Z"/><path class="cls-2" d="M91.06,22.48c22.4,12.72,30.83,18.89,33.51,28.21-.34-1.61-.88-3.66-1.34-5.38-.1-.36-.21-.71-.31-1.07-3.65-9.47-15.85-16.27-37-27.42-15-7.88-19.92-11-23-14.33C64.67,7.5,75.74,13.78,91.06,22.48Z"/><path class="cls-2" d="M119.71,36l-.27-.57-1.27-2.52-.86-1.5-.49-.83c-2.88-4.48-8.11-7.82-15.58-11.73C88.9,12.41,75.65,8.07,62.93,2.49,66.9,5,74.19,8.36,83.42,12.61,107.91,23.86,115.47,28.72,119.71,36Z"/><path class="cls-2" d="M112.08,23.78l-.35-.43-.23-.27c-.09-.12-.19-.23-.29-.35-.92-1.07-2-2.23-2.8-3.17C102.94,14,87.63,8.2,62.93,2.49,100.4,13.72,107.65,19,112.08,23.78Z"/><path class="cls-2" d="M101.8,13.56c-.91-.7-1.91-1.44-2.77-2.08l-.54-.36c-5.94-3.75-17.9-6.66-35.56-8.63,11,1.63,30.64,5.31,39.65,11.71Z"/><path class="cls-2" d="M76.87,2.48c1.47.2,2.91.46,4.33.78A23.68,23.68,0,0,1,86,4.4l-.17-.06c-1-.38-2.27-.83-3.24-1.18h0a31,31,0,0,0-8.15-1l.43,0C73.19,2.08,71.56,2,69.91,2c-2.54.12-2.88.15-7,.48A133.81,133.81,0,0,1,76.87,2.48Zm-1.21-.16.87.11Z"/></g></g></g></svg>