<svg xmlns="http://www.w3.org/2000/svg" viewBox="0 0 125.77 120.33"><defs><style>.cls-1{opacity:0.9;}.cls-2{fill:#fff;}</style></defs><g id="圖層_2" data-name="圖層 2"><g id="Graphic_Elements" data-name="Graphic Elements"><g class="cls-1"><path class="cls-2" d="M3.31,6.83c.63-1.55.21-3.45-.9-4.14A1.85,1.85,0,0,0,0,3.28V8.42l.11.07C1.22,9.11,2.68,8.38,3.31,6.83Z"/><path class="cls-2" d="M13.33,1.62c1.14.9,2.42.36,2.68-1.18,0-.15,0-.29,0-.44H12.21A3.86,3.86,0,0,0,13.33,1.62Z"/><path class="cls-2" d="M12,12.51a3.43,3.43,0,0,0-.94-4c-1.14-.81-2.55-.18-3.19,1.29a3.25,3.25,0,0,0,.88,4A2.25,2.25,0,0,0,12,12.51Z"/><path class="cls-2" d="M3.09,24.88c1.15.55,2.72-.16,3.49-1.58a2.73,2.73,0,0,0-.7-3.72c-1.14-.64-2.66.08-3.44,1.58S2,24.33,3.09,24.88Z"/><path class="cls-2" d="M0,30.94v4.13a4.81,4.81,0,0,0,.54-.77C1.28,32.92,1,31.45,0,30.94Z"/><path class="cls-2" d="M22.2,8.79c1.16,1,2.46.57,2.75-.81a5.19,5.19,0,0,0-1.74-4.35c-1.18-1-2.22-.7-2.49.76A5,5,0,0,0,22.2,8.79Z"/><path class="cls-2" d="M19.93,14.85a2.1,2.1,0,0,0-3.23.9,3,3,0,0,0,.89,3.75,2.25,2.25,0,0,0,3.3-.82A3.16,3.16,0,0,0,19.93,14.85Z"/><path class="cls-2" d="M11.93,29.25a2.8,2.8,0,0,0,3.49-1.17,2.44,2.44,0,0,0-.72-3.45,2.59,2.59,0,0,0-3.46,1.17A2.41,2.41,0,0,0,11.93,29.25Z"/><path class="cls-2" d="M5.23,36c-.77,1.34-.44,2.74.72,3.12a3.22,3.22,0,0,0,3.48-1.55,2,2,0,0,0-.7-3.12A3,3,0,0,0,5.23,36Z"/><path class="cls-2" d="M4,47.18c.63-1.25.24-2.5-.93-2.79a3.1,3.1,0,0,0-3,1.44v2.88a1.49,1.49,0,0,0,.76.35A3.28,3.28,0,0,0,4,47.18Z"/><path class="cls-2" d="M0,55.13v2a2.32,2.32,0,0,0,.13-.37A2.21,2.21,0,0,0,0,55.13Z"/><path class="cls-2" d="M32.3,6.42c1.22,1.06,2.09.92,1.77-.29a9.77,9.77,0,0,0-2.83-4.08C30,1,29.24,1,29.6,2.24A10.34,10.34,0,0,0,32.3,6.42Z"/><path class="cls-2" d="M31.15,16.07c1.17.93,2.48.66,2.8-.57a4.55,4.55,0,0,0-1.67-4c-1.19-1-2.27-.79-2.57.52A4.37,4.37,0,0,0,31.15,16.07Z"/><path class="cls-2" d="M29.8,24.82a2.71,2.71,0,0,0-.94-3.47A2.19,2.19,0,0,0,25.6,22a2.6,2.6,0,0,0,.89,3.43A2.35,2.35,0,0,0,29.8,24.82Z"/><path class="cls-2" d="M24.31,32.83a2,2,0,0,0-.72-3.06,2.68,2.68,0,0,0-3.47.85,2,2,0,0,0,.7,3.08A2.91,2.91,0,0,0,24.31,32.83Z"/><path class="cls-2" d="M14.88,42.11a3.32,3.32,0,0,0,3.47-1.24,1.71,1.71,0,0,0-.71-2.74,3.08,3.08,0,0,0-3.5,1.22A1.7,1.7,0,0,0,14.88,42.11Z"/><path class="cls-2" d="M12.93,49.07A1.55,1.55,0,0,0,12,46.61,3.18,3.18,0,0,0,8.7,48.19a1.57,1.57,0,0,0,1,2.48A3.34,3.34,0,0,0,12.93,49.07Z"/><path class="cls-2" d="M9.12,57.5A1.62,1.62,0,0,0,7.7,55.27a2.76,2.76,0,0,0-2.81,1.9,1.69,1.69,0,0,0,1.57,2.25A2.74,2.74,0,0,0,9.12,57.5Z"/><path class="cls-2" d="M8,66.28a2.21,2.21,0,0,0-2.15-2.13,2.06,2.06,0,0,0-2.07,2.13,2,2,0,0,0,2.06,2A2.08,2.08,0,0,0,8,66.28Z"/><path class="cls-2" d="M3,74.5a1.48,1.48,0,0,0,1.67,1.8,2.76,2.76,0,0,0,2.49-2,1.54,1.54,0,0,0-1.74-1.81A2.56,2.56,0,0,0,3,74.5Z"/><path class="cls-2" d="M2.36,84A3.55,3.55,0,0,0,5,82c.33-1-.32-1.66-1.44-1.54A3.24,3.24,0,0,0,.94,82.5C.63,83.52,1.26,84.19,2.36,84Z"/><path class="cls-2" d="M2.23,89.14C2.59,88.23,2,87.7,1,88a3.51,3.51,0,0,0-1,.42v2.89A4.49,4.49,0,0,0,2.23,89.14Z"/><path class="cls-2" d="M2.14,117.06A2.11,2.11,0,0,0,0,116.31v4H2.32A2.39,2.39,0,0,0,2.14,117.06Z"/><path class="cls-2" d="M40.06,5c1.4,1,2.2.63,1.7-.79A10.31,10.31,0,0,0,38.24,0H36.45a2.46,2.46,0,0,0,.18.76A11,11,0,0,0,40.06,5Z"/><path class="cls-2" d="M42.11,14.56c1.32,1,2.36.89,2.14-.26a8.11,8.11,0,0,0-2.86-4c-1.37-1-2.27-.92-2,.26A8.28,8.28,0,0,0,42.11,14.56Z"/><path class="cls-2" d="M40.52,23.21c1.26.89,2.68.72,3-.36s-.49-2.72-1.77-3.68-2.47-.85-2.81.3A3.73,3.73,0,0,0,40.52,23.21Z"/><path class="cls-2" d="M39.22,30.83c.69-.91.19-2.31-1-3.11a2.51,2.51,0,0,0-3.44.35,2.19,2.19,0,0,0,1,3.08A2.75,2.75,0,0,0,39.22,30.83Z"/><path class="cls-2" d="M32.78,34.81a3,3,0,0,0-3.59.54A1.7,1.7,0,0,0,30,38.06a3.39,3.39,0,0,0,3.63-.58C34.39,36.63,34,35.44,32.78,34.81Z"/><path class="cls-2" d="M24,45a3.73,3.73,0,0,0,3.57-.94c.77-.87.43-1.91-.79-2.36a3.37,3.37,0,0,0-3.59.9A1.43,1.43,0,0,0,24,45Z"/><path class="cls-2" d="M18.83,52.22a3.53,3.53,0,0,0,3.26-1.33c.63-.91.21-1.85-1-2.11a3.36,3.36,0,0,0-3.35,1.28A1.35,1.35,0,0,0,18.83,52.22Z"/><path class="cls-2" d="M18.21,58.21c.36-1-.25-1.87-1.44-2a2.81,2.81,0,0,0-2.85,1.67,1.56,1.56,0,0,0,1.58,2A2.81,2.81,0,0,0,18.21,58.21Z"/><path class="cls-2" d="M17,66.28a2.1,2.1,0,0,0-2.12-2,2,2,0,0,0-2.1,2,2,2,0,0,0,2,1.93A2.08,2.08,0,0,0,17,66.28Z"/><path class="cls-2" d="M13.41,75.82A2.84,2.84,0,0,0,16,74c.25-.94-.54-1.71-1.69-1.68a2.63,2.63,0,0,0-2.47,1.84C11.57,75.16,12.27,75.88,13.41,75.82Z"/><path class="cls-2" d="M13.49,80.83c.38-.84-.24-1.44-1.36-1.32a3.48,3.48,0,0,0-2.66,1.85c-.36.89.22,1.46,1.32,1.28A4,4,0,0,0,13.49,80.83Z"/><path class="cls-2" d="M10.31,86.89c.42-.75-.09-1.17-1.16-.91A4.43,4.43,0,0,0,6.5,88c-.39.82.13,1.21,1.17.88A5.27,5.27,0,0,0,10.31,86.89Z"/><path class="cls-2" d="M4.83,94.56a6.29,6.29,0,0,0,2.38-2.14c.37-.7-.13-.93-1.13-.51a5.1,5.1,0,0,0-2.43,2.16C3.32,94.84,3.86,95.06,4.83,94.56Z"/><path class="cls-2" d="M3.7,97.46a4.48,4.48,0,0,0-2.05,2.38c-.15.83.47,1,1.37.34a5.7,5.7,0,0,0,2-2.57C5.17,96.87,4.63,96.88,3.7,97.46Z"/><path class="cls-2" d="M3.45,106.79a3.56,3.56,0,0,0,1.07-3c-.18-.84-.91-.92-1.77-.18a3.49,3.49,0,0,0-1.32,2.94C1.64,107.48,2.61,107.57,3.45,106.79Z"/><path class="cls-2" d="M8.66,114a2.41,2.41,0,0,0-.19-3.26,2,2,0,0,0-2.93-.23,2.32,2.32,0,0,0,0,3.21A2.21,2.21,0,0,0,8.66,114Z"/><path class="cls-2" d="M11.78,118.62a2.72,2.72,0,0,0-.73,1.71h3.56a4.23,4.23,0,0,0-.21-.74C13.83,118.2,12.61,117.82,11.78,118.62Z"/><path class="cls-2" d="M48,0H46.71C47.31.26,47.75.24,48,0Z"/><path class="cls-2" d="M52.6,10.48a7.86,7.86,0,0,0-3.46-4.06c-1.41-.73-2.11-.14-1.63,1.34a8.22,8.22,0,0,0,3.33,4.08C52.23,12.61,53.06,12,52.6,10.48Z"/><path class="cls-2" d="M51.93,17.44c-1.37-.81-2.34-.46-2.18.67a5.71,5.71,0,0,0,2.55,3.52c1.32.8,2.43.52,2.32-.6A5.74,5.74,0,0,0,51.93,17.44Z"/><path class="cls-2" d="M51.67,25.88c-1.28-.76-2.54-.59-2.93.42a2.78,2.78,0,0,0,1.48,3.15c1.26.71,2.7.47,3.11-.48S53,26.64,51.67,25.88Z"/><path class="cls-2" d="M44.28,33.64c-.7.83-.28,2,.95,2.54a3.27,3.27,0,0,0,3.54-.38c.72-.77.25-1.9-1-2.53A3,3,0,0,0,44.28,33.64Z"/><path class="cls-2" d="M39.36,41.83A4.09,4.09,0,0,0,43,41.3c.79-.69.43-1.62-.8-2.11a3.68,3.68,0,0,0-3.63.45C37.8,40.41,38.14,41.4,39.36,41.83Z"/><path class="cls-2" d="M33.29,47.47a4.51,4.51,0,0,0,3.58-.82c.78-.71.45-1.52-.76-1.86a4,4,0,0,0-3.62.75C31.72,46.32,32.08,47.2,33.29,47.47Z"/><path class="cls-2" d="M31.31,52.31c.65-.78.24-1.52-1-1.72A3.85,3.85,0,0,0,27,51.71c-.64.84-.13,1.66,1.06,1.8A4.11,4.11,0,0,0,31.31,52.31Z"/><path class="cls-2" d="M27.33,58.71c.37-.9-.22-1.65-1.41-1.72A3,3,0,0,0,23,58.51c-.37.94.37,1.77,1.55,1.8A3,3,0,0,0,27.33,58.71Z"/><path class="cls-2" d="M25.92,66.28a2,2,0,0,0-2.07-1.92,2,2,0,0,0-2.15,1.92,2,2,0,0,0,2,1.9A2.06,2.06,0,0,0,25.92,66.28Z"/><path class="cls-2" d="M24.8,73.7c.28-.87-.49-1.59-1.64-1.56a2.74,2.74,0,0,0-2.52,1.71c-.26.9.41,1.55,1.56,1.49A3,3,0,0,0,24.8,73.7Z"/><path class="cls-2" d="M19.21,81.26A4.52,4.52,0,0,0,22,79.69c.44-.7-.14-1.21-1.26-1.09A3.88,3.88,0,0,0,18,80.23C17.58,81,18.12,81.44,19.21,81.26Z"/><path class="cls-2" d="M18.39,84.63c.49-.59,0-.88-1.05-.62a5.3,5.3,0,0,0-2.76,1.69c-.46.66,0,.92,1.05.59A6.77,6.77,0,0,0,18.39,84.63Z"/><path class="cls-2" d="M12.27,90.75a9.16,9.16,0,0,0,2.51-1.84c.43-.53,0-.63-1-.21a6.49,6.49,0,0,0-2.55,1.86C10.82,91.17,11.3,91.25,12.27,90.75Z"/><path class="cls-2" d="M10.87,93a5.6,5.6,0,0,0-2.16,2.11c-.22.66.34.68,1.24,0A7.8,7.8,0,0,0,12,92.89C12.29,92.32,11.8,92.42,10.87,93Z"/><path class="cls-2" d="M11.06,98c-.12-.73-.8-.7-1.66,0A3.54,3.54,0,0,0,8,100.73c.15.78,1.09.81,1.93,0A3.57,3.57,0,0,0,11.06,98Z"/><path class="cls-2" d="M15,107.65a2.42,2.42,0,0,0-.19-3.27,1.94,1.94,0,0,0-2.92-.19,2.29,2.29,0,0,0-.06,3.18A2.24,2.24,0,0,0,15,107.65Z"/><path class="cls-2" d="M18.17,112.44c-.83.81-1,2.52-.36,4s1.69,2.09,2.54,1.32,1.12-2.69.51-4.17S19,111.64,18.17,112.44Z"/><path class="cls-2" d="M53.59.18c.73,1.75,2.39,3.51,3.74,3.89s1.89-.81,1.16-2.59A7.29,7.29,0,0,0,57.65,0H53.52A1.34,1.34,0,0,0,53.59.18Z"/><path class="cls-2" d="M58.2,12.92a5.73,5.73,0,0,0,3.16,3.62c1.33.43,2.13-.53,1.7-2.1a5.61,5.61,0,0,0-3.28-3.56C58.44,10.47,57.76,11.37,58.2,12.92Z"/><path class="cls-2" d="M62.27,22.3C61,21.86,60,22.51,60,23.63a3.54,3.54,0,0,0,2.29,2.88c1.27.44,2.4-.14,2.4-1.28A3.61,3.61,0,0,0,62.27,22.3Z"/><path class="cls-2" d="M62.86,32.92c.46-.88-.25-1.91-1.48-2.35a2.34,2.34,0,0,0-3,.81,1.83,1.83,0,0,0,1.34,2.43A2.65,2.65,0,0,0,62.86,32.92Z"/><path class="cls-2" d="M53.76,37.75c-.73.72-.34,1.58.86,1.9a4.15,4.15,0,0,0,3.5-.67c.74-.69.33-1.5-.88-1.86A3.83,3.83,0,0,0,53.76,37.75Z"/><path class="cls-2" d="M51.53,42.19a4.79,4.79,0,0,0-3.6.59c-.8.62-.48,1.36.71,1.59a5.4,5.4,0,0,0,3.61-.69C53.05,43.1,52.73,42.46,51.53,42.19Z"/><path class="cls-2" d="M42.5,49a5.74,5.74,0,0,0,3.55-.9c.79-.59.49-1.16-.7-1.33a5.26,5.26,0,0,0-3.6.79C41,48.24,41.32,48.91,42.5,49Z"/><path class="cls-2" d="M40.45,53c.65-.68.26-1.24-.92-1.32a4.67,4.67,0,0,0-3.37,1.1c-.64.72-.16,1.39,1,1.43A4.72,4.72,0,0,0,40.45,53Z"/><path class="cls-2" d="M33.66,60.45a3.17,3.17,0,0,0,2.75-1.6c.38-.85-.19-1.49-1.37-1.5a3.27,3.27,0,0,0-2.9,1.49C31.76,59.71,32.48,60.46,33.66,60.45Z"/><path class="cls-2" d="M32.85,64.37a2.07,2.07,0,0,0-2.19,1.91,1.93,1.93,0,0,0,2,1.88,2.05,2.05,0,0,0,2.18-1.88A1.92,1.92,0,0,0,32.85,64.37Z"/><path class="cls-2" d="M31,74.86a3.13,3.13,0,0,0,2.66-1.49c.31-.78-.44-1.46-1.6-1.43a2.87,2.87,0,0,0-2.56,1.59C29.19,74.35,29.83,74.92,31,74.86Z"/><path class="cls-2" d="M27.64,79.88a5.64,5.64,0,0,0,2.9-1.32c.48-.58-.06-1-1.18-.87a4.57,4.57,0,0,0-2.84,1.4C26.06,79.73,26.55,80.06,27.64,79.88Z"/><path class="cls-2" d="M23.59,83.74a11.24,11.24,0,0,0,2.88-1.36c.55-.43.13-.6-.94-.34a7.26,7.26,0,0,0-2.87,1.4C22.14,84,22.56,84.07,23.59,83.74Z"/><path class="cls-2" d="M22.35,85.4c.5-.37.12-.33-.88.09a10.52,10.52,0,0,0-2.68,1.56c-.47.44,0,.39.93-.1A26,26,0,0,0,22.35,85.4Z"/><path class="cls-2" d="M16.88,90.1a16.5,16.5,0,0,0,2.22-1.94c.32-.39-.12-.19-1.05.39a8.74,8.74,0,0,0-2.28,1.84C15.48,90.86,16,90.75,16.88,90.1Z"/><path class="cls-2" d="M17.61,92.12c-.08-.62-.7-.49-1.57.25s-1.62,1.83-1.52,2.5,1,.63,1.85-.15A3.73,3.73,0,0,0,17.61,92.12Z"/><path class="cls-2" d="M21.14,98.05a1.94,1.94,0,0,0-2.91-.16,2.31,2.31,0,0,0,3.09,3.42A2.4,2.4,0,0,0,21.14,98.05Z"/><path class="cls-2" d="M24.57,106.26c-.83.81-.93,2.57-.3,4.1s1.77,2.27,2.63,1.51,1.07-2.78.42-4.35S25.4,105.46,24.57,106.26Z"/><path class="cls-2" d="M28.94,119.27a2.28,2.28,0,0,0-.69,1.06h2.64C30.37,119.2,29.6,118.75,28.94,119.27Z"/><path class="cls-2" d="M63.74,2.19c.73,1.81,2.31,3.3,3.46,3.26s1.5-1.57.77-3.37A6.6,6.6,0,0,0,66.63,0H63.41A4.07,4.07,0,0,0,63.74,2.19Z"/><path class="cls-2" d="M69.62,12.4c-1.14,0-1.75,1.31-1.33,2.89s1.71,2.87,2.84,2.82,1.75-1.39,1.34-3S70.76,12.34,69.62,12.4Z"/><path class="cls-2" d="M71.94,23.85a2.34,2.34,0,0,0-2.15,2.24,1.87,1.87,0,0,0,1.91,2.05,2.5,2.5,0,0,0,2.22-2.22A1.9,1.9,0,0,0,71.94,23.85Z"/><path class="cls-2" d="M68.76,35.37a4,4,0,0,0,2.82-1.74c.48-.87,0-1.48-1.08-1.4a3.78,3.78,0,0,0-2.82,1.6C67.2,34.7,67.7,35.45,68.76,35.37Z"/><path class="cls-2" d="M66.22,38.44a6.45,6.45,0,0,0-3.34,1.23c-.74.67-.4,1.22.7,1.17a5.81,5.81,0,0,0,3.26-1.32C67.57,38.83,67.29,38.37,66.22,38.44Z"/><path class="cls-2" d="M57.62,45.15a7.15,7.15,0,0,0,3.48-1.08c.78-.56.53-.93-.6-.9a7.74,7.74,0,0,0-3.51,1C56.18,44.7,56.46,45.17,57.62,45.15Z"/><path class="cls-2" d="M54.36,47.35a7.18,7.18,0,0,0-3.56,1c-.79.56-.47,1,.74,1a6.75,6.75,0,0,0,3.54-1.05C55.85,47.76,55.55,47.36,54.36,47.35Z"/><path class="cls-2" d="M49.6,53c.64-.66.22-1.15-1-1.19A5.23,5.23,0,0,0,45.21,53c-.64.66-.18,1.18,1.06,1.22A5,5,0,0,0,49.6,53Z"/><path class="cls-2" d="M42.7,60.31a3.24,3.24,0,0,0,2.83-1.56c.4-.85-.19-1.48-1.42-1.52a3.3,3.3,0,0,0-2.94,1.5C40.79,59.58,41.49,60.28,42.7,60.31Z"/><path class="cls-2" d="M43.74,66.21a1.81,1.81,0,0,0-1.92-1.92,2.12,2.12,0,0,0-2.2,2,1.81,1.81,0,0,0,2,1.81A2.2,2.2,0,0,0,43.74,66.21Z"/><path class="cls-2" d="M39.66,74.23a4.09,4.09,0,0,0,2.53-1.59c.34-.69-.29-1.17-1.35-1a3.43,3.43,0,0,0-2.52,1.57C38,74,38.63,74.46,39.66,74.23Z"/><path class="cls-2" d="M36,78.34A10.64,10.64,0,0,0,38.8,77c.53-.45.09-.63-.92-.33A8,8,0,0,0,35,78C34.53,78.46,35,78.7,36,78.34Z"/><path class="cls-2" d="M33.68,79.92a29.35,29.35,0,0,0-2.94,1.27c-.58.35-.22.34.8-.12s2.34-1,2.93-1.3S34.69,79.5,33.68,79.92Z"/><path class="cls-2" d="M30.15,81.72Z"/><path class="cls-2" d="M30.15,81.72l-.06,0c-.53.23-1.81.78-2.86,1.33l-.85.44.12,0c.59-.3,1.73-.82,2.68-1.29Z"/><path class="cls-2" d="M25.33,84.07a23,23,0,0,0-2.5,1.59c-.36.29.06,0,1.12-.61s2.25-1.3,2.61-1.54c.18-.12.14-.13-.06,0l-.12,0C26.15,83.63,25.79,83.81,25.33,84.07Z"/><path class="cls-2" d="M24.74,86.48c0-.51-.81-.42-1.88.27S21,88.46,21.07,89s.89.41,1.94-.33S24.77,87,24.74,86.48Z"/><path class="cls-2" d="M27.93,91.76a2.34,2.34,0,0,0-3.2-.19,2.09,2.09,0,0,0-.25,3.13,2.36,2.36,0,0,0,3.29.23A2.2,2.2,0,0,0,27.93,91.76Z"/><path class="cls-2" d="M33.52,106.06c.94-.68,1.25-2.61.57-4.29s-2.09-2.42-3-1.67-1,2.6-.33,4.23S32.57,106.74,33.52,106.06Z"/><path class="cls-2" d="M38.44,116.88c-.46-2.21-1.69-3.51-2.65-2.89s-1.26,2.87-.82,5a8.48,8.48,0,0,0,.38,1.31h3A7.79,7.79,0,0,0,38.44,116.88Z"/><path class="cls-2" d="M75.33,4c1-.31,1.26-2,.61-3.75A2.33,2.33,0,0,0,75.83,0H72a6.2,6.2,0,0,0,.35,1.36C73,3.14,74.35,4.35,75.33,4Z"/><path class="cls-2" d="M78.94,16.46c.9-.36,1.37-1.9,1-3.44s-1.46-2.53-2.39-2.19-1.33,1.89-.93,3.46S78,16.82,78.94,16.46Z"/><path class="cls-2" d="M79.69,22.17A3.84,3.84,0,0,0,78,25c-.16,1.13.36,1.73,1.2,1.34a4.09,4.09,0,0,0,1.93-2.72C81.29,22.51,80.57,21.8,79.69,22.17Z"/><path class="cls-2" d="M76,33.57a6,6,0,0,0,2.37-2.3c.47-.89.18-1.29-.65-.9a6.23,6.23,0,0,0-2.35,2.27C74.91,33.52,75.19,33.94,76,33.57Z"/><path class="cls-2" d="M73.66,36.81a9.19,9.19,0,0,0-2.82,1.89c-.69.71-.48,1,.42.69a7.5,7.5,0,0,0,2.79-1.87C74.7,36.77,74.52,36.46,73.66,36.81Z"/><path class="cls-2" d="M65.89,44.1a8.42,8.42,0,0,0,3-1.6c.7-.62.51-.86-.45-.58a10.75,10.75,0,0,0-3.09,1.53C64.65,44,64.89,44.35,65.89,44.1Z"/><path class="cls-2" d="M60.37,48.73a7.4,7.4,0,0,0,3.19-1.51c.69-.62.43-.91-.62-.7a8.92,8.92,0,0,0-3.26,1.41C59,48.52,59.28,48.91,60.37,48.73Z"/><path class="cls-2" d="M55.42,53.82a5.5,5.5,0,0,0,3.12-1.56c.6-.7.22-1.09-.9-.94a6.19,6.19,0,0,0-3.22,1.45C53.79,53.45,54.27,54,55.42,53.82Z"/><path class="cls-2" d="M51.76,59.94a3.85,3.85,0,0,0,2.8-1.8c.42-.84-.12-1.37-1.28-1.25a4,4,0,0,0-2.92,1.67C49.94,59.4,50.61,60.06,51.76,59.94Z"/><path class="cls-2" d="M52.27,65.39c.16-1-.55-1.74-1.68-1.61a2.64,2.64,0,0,0-2.32,2.1c-.09.93.64,1.5,1.73,1.34A2.67,2.67,0,0,0,52.27,65.39Z"/><path class="cls-2" d="M50.23,71.05c.38-.61-.22-1-1.27-.79a4.09,4.09,0,0,0-2.52,1.55c-.36.63.15.91,1.19.69A4.57,4.57,0,0,0,50.23,71.05Z"/><path class="cls-2" d="M43.93,76a9.11,9.11,0,0,0,2.85-1.13c.51-.41,0-.59-1-.35A8.32,8.32,0,0,0,43,75.79C42.48,76.2,42.88,76.28,43.93,76Z"/><path class="cls-2" d="M39.69,78.38a17.25,17.25,0,0,0,3-.9c.54-.28.11-.35-1-.1a17.88,17.88,0,0,0-3,1C38.18,78.67,38.6,78.63,39.69,78.38Z"/><path class="cls-2" d="M37.49,79.33a23.47,23.47,0,0,0-3,.89c-.51.21,0,.13,1.16-.11a20.9,20.9,0,0,0,3-.77C39.12,79.12,38.61,79.09,37.49,79.33Z"/><path class="cls-2" d="M32.64,81.83a11.38,11.38,0,0,0,2.78-.8c.33-.23-.33-.29-1.5-.06a10.51,10.51,0,0,0-2.78.88C30.79,82.07,31.45,82.05,32.64,81.83Z"/><path class="cls-2" d="M31.69,85c1.21-.22,2.06-.75,2-1.23s-.91-.71-2.12-.49-2.27.83-2.25,1.31S30.49,85.27,31.69,85Z"/><path class="cls-2" d="M35.87,90.8a1.22,1.22,0,0,0,.64-2.15,3.77,3.77,0,0,0-3.34-1.05c-1.18.24-1.65,1.14-.87,2A4.33,4.33,0,0,0,35.87,90.8Z"/><path class="cls-2" d="M41.43,102.76c1.11-.19,1.54-1.8.87-3.55S40.13,96.26,39,96.47s-1.4,1.75-.73,3.48S40.32,103,41.43,102.76Z"/><path class="cls-2" d="M45.51,119c1.12-.19,1.7-2.15,1.21-4.38s-1.85-3.89-3-3.71-1.55,2.15-1.08,4.38S44.39,119.23,45.51,119Z"/><path class="cls-2" d="M82.32.84A1.66,1.66,0,0,0,83,0H80.42C81,.83,81.73,1.19,82.32.84Z"/><path class="cls-2" d="M84.1,7.37c-.78.55-1.11,2.23-.79,3.75s1.12,2.26,1.85,1.68,1.13-2.23.86-3.71S84.87,6.83,84.1,7.37Z"/><path class="cls-2" d="M85.61,18.35a7.24,7.24,0,0,0-1.48,3.21c-.25,1.1.05,1.49.69.88a7.84,7.84,0,0,0,1.69-3.09C86.8,18.26,86.29,17.74,85.61,18.35Z"/><path class="cls-2" d="M81.73,29.86a9.68,9.68,0,0,0,2-2.75c.44-.94.28-1.2-.36-.6a11.89,11.89,0,0,0-2,2.74C80.91,30.16,81.07,30.44,81.73,29.86Z"/><path class="cls-2" d="M79.67,33.37a14.09,14.09,0,0,0-2.35,2.4c-.59.8-.45.95.31.45A9,9,0,0,0,80,33.9C80.5,33.06,80.37,32.83,79.67,33.37Z"/><path class="cls-2" d="M73.07,41.53a8.94,8.94,0,0,0,2.62-2c.58-.71.4-.89-.42-.43a13.32,13.32,0,0,0-2.65,2C72,41.72,72.2,41.94,73.07,41.53Z"/><path class="cls-2" d="M70.56,44.27a9.64,9.64,0,0,0-2.88,1.83c-.64.66-.32,1,.67.65a7.16,7.16,0,0,0,2.83-1.89C71.76,44.16,71.5,43.91,70.56,44.27Z"/><path class="cls-2" d="M64,52.31a5.53,5.53,0,0,0,2.88-1.87c.53-.75.15-1.1-.89-.82A6.37,6.37,0,0,0,63,51.41C62.44,52.13,62.89,52.56,64,52.31Z"/><path class="cls-2" d="M63.17,56.64c.42-.86-.1-1.34-1.2-1.11a4.45,4.45,0,0,0-2.81,1.91c-.42.85.19,1.41,1.29,1.2A4.28,4.28,0,0,0,63.17,56.64Z"/><path class="cls-2" d="M60.6,63.85c.25-1-.39-1.62-1.49-1.41a3.2,3.2,0,0,0-2.4,2.21c-.18.84.48,1.3,1.54,1.08A3.15,3.15,0,0,0,60.6,63.85Z"/><path class="cls-2" d="M58.26,69.4c.38-.62-.18-1-1.23-.76a4.47,4.47,0,0,0-2.55,1.54c-.38.6.13.87,1.17.66A4.55,4.55,0,0,0,58.26,69.4Z"/><path class="cls-2" d="M52.12,74.48a6.13,6.13,0,0,0,2.81-1c.47-.45,0-.71-1.07-.52a6.87,6.87,0,0,0-2.78,1.14C50.59,74.47,51,74.64,52.12,74.48Z"/><path class="cls-2" d="M51.21,76.43c.48-.34,0-.56-1.13-.45a9,9,0,0,0-2.93.81c-.51.3,0,.43,1.13.35A7.18,7.18,0,0,0,51.21,76.43Z"/><path class="cls-2" d="M46.34,78.31a8.58,8.58,0,0,0-3,.55c-.45.25.18.42,1.39.43a6.74,6.74,0,0,0,2.94-.45C48.12,78.54,47.52,78.28,46.34,78.31Z"/><path class="cls-2" d="M40.41,80.79c-.31.26.47.55,1.75.66A4.94,4.94,0,0,0,45,81.11c.27-.31-.49-.66-1.74-.72A5.74,5.74,0,0,0,40.41,80.79Z"/><path class="cls-2" d="M41.41,84.93c1.31.19,2.25-.06,2.22-.58s-1-1.09-2.34-1.24-2.44.15-2.42.63S40.09,84.75,41.41,84.93Z"/><path class="cls-2" d="M45.17,90.75c1.27.22,1.67-.54,1-1.36a6.14,6.14,0,0,0-3.42-1.86c-1.31-.21-1.94.28-1.24,1.09A7.64,7.64,0,0,0,45.17,90.75Z"/><path class="cls-2" d="M50.41,102.84c1.23.19,1.75-1.09,1.12-2.82s-2.21-3.26-3.44-3.47-1.66,1-1,2.72S49.19,102.64,50.41,102.84Z"/><path class="cls-2" d="M54.55,118.85c1.22.13,1.85-1.54,1.34-3.71s-1.94-4-3.16-4.21-1.75,1.48-1.25,3.69S53.32,118.73,54.55,118.85Z"/><path class="cls-2" d="M90.21,7.81A5.94,5.94,0,0,0,91.12,4c-.13-1.4-.81-2-1.48-1.36a5.2,5.2,0,0,0-.82,3.84C89,8,89.61,8.52,90.21,7.81Z"/><path class="cls-2" d="M89.18,17.15a16.1,16.1,0,0,0,1.52-3.33c.35-1.08,0-1.45-.49-.71a14,14,0,0,0-1.36,3.43C88.53,17.63,88.68,17.89,89.18,17.15Z"/><path class="cls-2" d="M87.7,21.34A20.1,20.1,0,0,0,86,24.41c-.4,1-.29,1.19.25.49a14.4,14.4,0,0,0,1.63-3.08C88.3,20.82,88.21,20.6,87.7,21.34Z"/><path class="cls-2" d="M84.61,28.75a16.31,16.31,0,0,0-1.92,2.79c-.46.9-.33,1,.32.39a9.2,9.2,0,0,0,1.93-2.66C85.34,28.32,85.2,28.09,84.61,28.75Z"/><path class="cls-2" d="M81.16,35.15a12.52,12.52,0,0,0-2.24,2.36c-.51.75-.28,1,.5.46a7.87,7.87,0,0,0,2.22-2.38C82.09,34.79,81.87,34.6,81.16,35.15Z"/><path class="cls-2" d="M74.92,43.27c-.52.75-.18,1,.73.64a6.15,6.15,0,0,0,2.48-2.19c.46-.8.16-1.07-.7-.62A8.35,8.35,0,0,0,74.92,43.27Z"/><path class="cls-2" d="M73.69,47.12A6,6,0,0,0,71,49.19c-.48.79,0,1.2,1,.88A5.14,5.14,0,0,0,74.63,48C75.08,47.13,74.66,46.76,73.69,47.12Z"/><path class="cls-2" d="M71.4,54.59c.39-.9-.12-1.37-1.17-1.08a4.57,4.57,0,0,0-2.66,2.09c-.41.88.16,1.41,1.22,1.14A4.35,4.35,0,0,0,71.4,54.59Z"/><path class="cls-2" d="M66.31,63.87a3.58,3.58,0,0,0,2.39-2c.31-1-.27-1.57-1.33-1.31a3.71,3.71,0,0,0-2.45,2.27C64.68,63.68,65.28,64.12,66.31,63.87Z"/><path class="cls-2" d="M63.62,69.33a4,4,0,0,0,2.53-1.54c.38-.69-.14-1.09-1.16-.86a4.32,4.32,0,0,0-2.53,1.61C62.08,69.18,62.59,69.51,63.62,69.33Z"/><path class="cls-2" d="M63.05,72.49c.42-.55,0-.9-1.1-.77a5.05,5.05,0,0,0-2.7,1.17c-.44.5.07.8,1.15.72A4,4,0,0,0,63.05,72.49Z"/><path class="cls-2" d="M59.84,76.37c.4-.47-.09-.84-1.2-.84a5.08,5.08,0,0,0-2.83.78c-.44.4.14.73,1.3.8A3.82,3.82,0,0,0,59.84,76.37Z"/><path class="cls-2" d="M57,79.78c.33-.43-.25-.87-1.45-1a4.54,4.54,0,0,0-2.88.43c-.37.36.36.79,1.61,1S56.63,80.21,57,79.78Z"/><path class="cls-2" d="M54.85,83.11c.21-.45-.51-1-1.81-1.3s-2.56-.2-2.8.18.64,1,2,1.32S54.65,83.55,54.85,83.11Z"/><path class="cls-2" d="M51.8,87.6c1.38.49,2.18.31,2.12-.32s-1-1.42-2.33-1.86-2.53-.31-2.48.26S50.42,87.1,51.8,87.6Z"/><path class="cls-2" d="M56.34,93a7.8,7.8,0,0,0-3.26-2.5C51.7,90,51,90.19,51.59,91a11.15,11.15,0,0,0,3.67,2.84C56.61,94.45,56.94,93.89,56.34,93Z"/><path class="cls-2" d="M60.11,105.56c1.29.49,1.71-.57,1.11-2.22a6.92,6.92,0,0,0-3.31-3.82c-1.31-.54-1.84.33-1.22,2A7.35,7.35,0,0,0,60.11,105.56Z"/><path class="cls-2" d="M65.49,117.67c-.51-2-1.84-4-3.12-4.4s-1.88.91-1.37,3a7.72,7.72,0,0,0,2.36,4h2.07A3.87,3.87,0,0,0,65.49,117.67Z"/><path class="cls-2" d="M93.49,1.17c0,1.35.44,1.82.94,1.08A6.61,6.61,0,0,0,95.25,0h-1.7A7.78,7.78,0,0,0,93.49,1.17Z"/><path class="cls-2" d="M93.88,7.24a30.43,30.43,0,0,0-1.32,3.44c-.37,1.09-.33,1.33.07.55A34.8,34.8,0,0,0,94,7.85C94.42,6.76,94.31,6.47,93.88,7.24Z"/><path class="cls-2" d="M91.22,15.57a23.16,23.16,0,0,0-1.39,3.25c-.34,1-.23,1.28.22.55a15,15,0,0,0,1.34-3.26C91.69,15.05,91.63,14.8,91.22,15.57Z"/><path class="cls-2" d="M87.71,27.13a7.38,7.38,0,0,0,1.56-2.87c.26-1.06.07-1.36-.45-.67a12.79,12.79,0,0,0-1.54,3.05C87,27.65,87.13,27.77,87.71,27.13Z"/><path class="cls-2" d="M86.42,30.76a8.69,8.69,0,0,0-1.87,2.61c-.37.85-.07,1.11.66.58a6,6,0,0,0,1.86-2.6C87.37,30.44,87.08,30.18,86.42,30.76Z"/><path class="cls-2" d="M82.51,40.68a5,5,0,0,0,2.18-2.41c.32-.9-.07-1.24-.89-.76a6.39,6.39,0,0,0-2.19,2.4C81.22,40.77,81.63,41.11,82.51,40.68Z"/><path class="cls-2" d="M79.7,47.49a4.43,4.43,0,0,0,2.43-2.28c.34-.91-.15-1.34-1.1-1a5.12,5.12,0,0,0-2.44,2.26C78.2,47.4,78.7,47.83,79.7,47.49Z"/><path class="cls-2" d="M79.47,52.3c.35-.94-.21-1.44-1.25-1.12a4.48,4.48,0,0,0-2.59,2.22c-.37.92.21,1.44,1.27,1.15A4.27,4.27,0,0,0,79.47,52.3Z"/><path class="cls-2" d="M75.46,58.44a4.17,4.17,0,0,0-2.56,2.31c-.3.88.25,1.34,1.3,1.06a4.11,4.11,0,0,0,2.55-2.1C77.11,58.74,76.53,58.16,75.46,58.44Z"/><path class="cls-2" d="M71.27,67.86a3.92,3.92,0,0,0,2.54-1.71c.4-.78-.1-1.24-1.12-1a4.29,4.29,0,0,0-2.54,1.78C69.76,67.64,70.26,68.05,71.27,67.86Z"/><path class="cls-2" d="M70.76,71.69c.39-.67-.1-1.14-1.11-1A4.12,4.12,0,0,0,67.08,72c-.4.62.1,1,1.13,1A3.45,3.45,0,0,0,70.76,71.69Z"/><path class="cls-2" d="M65.32,77.56a2.87,2.87,0,0,0,2.56-.94c.35-.61-.2-1.14-1.24-1.15a3.5,3.5,0,0,0-2.59,1C63.67,77,64.25,77.48,65.32,77.56Z"/><path class="cls-2" d="M64,79.83a2.81,2.81,0,0,0-2.56.64c-.3.51.39,1.11,1.52,1.35s2.25,0,2.52-.6S65.08,80,64,79.83Z"/><path class="cls-2" d="M63.78,85.77c.16-.6-.63-1.37-1.79-1.71s-2.27-.16-2.45.36.63,1.29,1.81,1.7S63.62,86.37,63.78,85.77Z"/><path class="cls-2" d="M61.12,91.43c1.2.56,2.05.38,2-.38s-1-1.76-2.21-2.25-2.21-.34-2.14.35S59.92,90.87,61.12,91.43Z"/><path class="cls-2" d="M64.18,98.35c1.15.64,1.56.26,1-.72a8,8,0,0,0-3-2.85c-1.18-.62-1.8-.4-1.25.53A10.63,10.63,0,0,0,64.18,98.35Z"/><path class="cls-2" d="M68.8,109.41c1.12.56,1.56-.31,1-1.86a8.08,8.08,0,0,0-3.11-3.83c-1.12-.61-1.54.12-.94,1.72A8.23,8.23,0,0,0,68.8,109.41Z"/><path class="cls-2" d="M71.11,116.63c-1.13-.49-1.59.68-1.06,2.65a8.62,8.62,0,0,0,.35,1h3.54A7,7,0,0,0,71.11,116.63Z"/><path class="cls-2" d="M96.88,1.28c-.36.76-.94,2.28-1.35,3.37s-.42,1.34-.08.57S96.34,3,96.77,1.85,97.25.52,96.88,1.28Z"/><path class="cls-2" d="M94.14,9.71A21.18,21.18,0,0,0,93,13.07c-.26,1.1-.12,1.41.28.69a14.36,14.36,0,0,0,1.07-3.35C94.56,9.28,94.5,9,94.14,9.71Z"/><path class="cls-2" d="M92.55,18.36a9.2,9.2,0,0,0-1.17,3.23c-.18,1.12.06,1.3.59.68a5.84,5.84,0,0,0,1.2-3C93.27,18.1,93,17.69,92.55,18.36Z"/><path class="cls-2" d="M91.3,26.31a6.38,6.38,0,0,0-1.5,2.78c-.21,1,.17,1.31.86.8a4.69,4.69,0,0,0,1.5-2.75C92.29,26.13,91.91,25.75,91.3,26.31Z"/><path class="cls-2" d="M88.05,36.44c-.25,1,.24,1.38,1.08,1A3.84,3.84,0,0,0,91,34.88c.17-1-.31-1.46-1.09-1A4.71,4.71,0,0,0,88.05,36.44Z"/><path class="cls-2" d="M86,43.75c-.28,1,.27,1.46,1.23,1.14a3.63,3.63,0,0,0,2.18-2.36c.22-1-.34-1.52-1.25-1.16A4.15,4.15,0,0,0,86,43.75Z"/><path class="cls-2" d="M87.41,50.12c.3-1-.28-1.57-1.29-1.28a4,4,0,0,0-2.42,2.27c-.33,1,.25,1.52,1.28,1.25A3.72,3.72,0,0,0,87.41,50.12Z"/><path class="cls-2" d="M82.12,59.81a4.29,4.29,0,0,0,2.64-2.16c.4-.94-.15-1.57-1.19-1.32A4.23,4.23,0,0,0,81,58.58C80.63,59.51,81.11,60.05,82.12,59.81Z"/><path class="cls-2" d="M79,66.57a3.65,3.65,0,0,0,2.52-1.83c.41-.88,0-1.46-1-1.27a4.08,4.08,0,0,0-2.54,1.89C77.48,66.19,78,66.71,79,66.57Z"/><path class="cls-2" d="M78.5,71.24c.36-.82-.14-1.44-1.13-1.36a3.35,3.35,0,0,0-2.5,1.52c-.38.75.15,1.32,1.16,1.31A2.85,2.85,0,0,0,78.5,71.24Z"/><path class="cls-2" d="M76,77.34c.3-.78-.29-1.48-1.33-1.55a2.65,2.65,0,0,0-2.48,1.15c-.32.7.3,1.37,1.37,1.52A2.26,2.26,0,0,0,76,77.34Z"/><path class="cls-2" d="M74.05,83.24c.21-.76-.5-1.59-1.6-1.83s-2.21.13-2.45.81.51,1.48,1.64,1.8S73.84,84,74.05,83.24Z"/><path class="cls-2" d="M70.93,87c-1.16-.41-2.24-.18-2.37.51s.73,1.68,1.92,2.17,2.24.26,2.35-.51S72.1,87.38,70.93,87Z"/><path class="cls-2" d="M70.42,96.1c1.22.65,2.09.43,2-.47A4,4,0,0,0,70.17,93C69,92.37,68,92.56,68,93.4S69.21,95.45,70.42,96.1Z"/><path class="cls-2" d="M73.07,103.76c1.17.75,1.64.5,1.22-.58A7.82,7.82,0,0,0,71.42,100c-1.2-.72-1.89-.5-1.42.53A9.66,9.66,0,0,0,73.07,103.76Z"/><path class="cls-2" d="M77.47,114.09c1.13.65,1.58,0,1-1.49a9,9,0,0,0-3.1-3.8c-1.15-.71-1.6-.15-1,1.34A9,9,0,0,0,77.47,114.09Z"/><path class="cls-2" d="M96.75,4.22a13.73,13.73,0,0,0-1,3.34c-.17,1.17,0,1.59.4,1a10.74,10.74,0,0,0,.86-3.33C97.18,4,97.08,3.55,96.75,4.22Z"/><path class="cls-2" d="M95.93,17.78a4.47,4.47,0,0,0,.89-3c0-1.28-.42-1.86-.85-1.27a6.82,6.82,0,0,0-.85,3.3C95.1,18,95.43,18.32,95.93,17.78Z"/><path class="cls-2" d="M95.83,26.21A3.52,3.52,0,0,0,97,23.42c0-1.12-.51-1.66-1.1-1.17a4.53,4.53,0,0,0-1.16,2.83C94.68,26.15,95.17,26.64,95.83,26.21Z"/><path class="cls-2" d="M95.48,34.54A2.94,2.94,0,0,0,97,32c0-1.1-.57-1.72-1.31-1.34a3.52,3.52,0,0,0-1.51,2.62C94.09,34.31,94.67,34.87,95.48,34.54Z"/><path class="cls-2" d="M95.09,38.88a3.23,3.23,0,0,0-1.89,2.41c-.17,1,.44,1.65,1.38,1.41a2.89,2.89,0,0,0,1.93-2.35C96.62,39.27,96,38.6,95.09,38.88Z"/><path class="cls-2" d="M92.83,50.59a3.17,3.17,0,0,0,2.31-2.17c.25-1-.38-1.72-1.36-1.51a3.36,3.36,0,0,0-2.26,2.23C91.25,50.14,91.82,50.78,92.83,50.59Z"/><path class="cls-2" d="M92.55,56.09c.44-.93-.08-1.64-1.09-1.46a4,4,0,0,0-2.55,2.11c-.45,1,0,1.65.94,1.48A4.16,4.16,0,0,0,92.55,56.09Z"/><path class="cls-2" d="M89,63.82c.42-1,0-1.71-1-1.59a3.66,3.66,0,0,0-2.53,2c-.41.94.06,1.61,1,1.53A3.26,3.26,0,0,0,89,63.82Z"/><path class="cls-2" d="M86.12,71.26A1.2,1.2,0,0,0,85,69.53a2.83,2.83,0,0,0-2.4,1.66,1.2,1.2,0,0,0,1.2,1.68A2.46,2.46,0,0,0,86.12,71.26Z"/><path class="cls-2" d="M84,78.52a1.59,1.59,0,0,0-1.42-2,2.19,2.19,0,0,0-2.35,1.34,1.61,1.61,0,0,0,1.46,1.92A1.93,1.93,0,0,0,84,78.52Z"/><path class="cls-2" d="M82.6,85.71a2.19,2.19,0,0,0-1.71-2.24,1.75,1.75,0,0,0-2.31,1c-.17.85.63,1.84,1.75,2.22S82.47,86.65,82.6,85.71Z"/><path class="cls-2" d="M79.64,93.68c1.19.54,2.2.2,2.25-.75a3,3,0,0,0-2-2.56c-1.16-.46-2.19-.14-2.27.73A3.19,3.19,0,0,0,79.64,93.68Z"/><path class="cls-2" d="M81.83,100.65a4.39,4.39,0,0,0-2.32-3c-1.21-.63-2.19-.36-2.11.62a4.89,4.89,0,0,0,2.41,3.06C81,102,81.91,101.7,81.83,100.65Z"/><path class="cls-2" d="M82.08,109.72c1.18.78,1.72.62,1.37-.56a7.18,7.18,0,0,0-2.76-3.47c-1.21-.76-2-.5-1.56.63A8.31,8.31,0,0,0,82.08,109.72Z"/><path class="cls-2" d="M86.21,119.29c1.14.7,1.6.13,1.05-1.2a9.51,9.51,0,0,0-3.07-3.68c-1.15-.74-1.64-.31-1.07,1.07A9.29,9.29,0,0,0,86.21,119.29Z"/><path class="cls-2" d="M99,4.16A7.32,7.32,0,0,0,99.76,1a7.56,7.56,0,0,0,0-1h-.62a9.84,9.84,0,0,0-.66,2.81C98.37,4.05,98.66,4.65,99,4.16Z"/><path class="cls-2" d="M99.31,9.51a4.94,4.94,0,0,0-.58,3.24c.13,1.35.57,1.8,1.07,1.4a3.28,3.28,0,0,0,.64-2.9C100.24,9.85,99.75,9.07,99.31,9.51Z"/><path class="cls-2" d="M100.38,19a3.26,3.26,0,0,0-.87,2.79c.11,1.18.72,1.85,1.37,1.55s1.06-1.48.88-2.71S101,18.68,100.38,19Z"/><path class="cls-2" d="M101.38,28.21a2.6,2.6,0,0,0-1.22,2.57c0,1.16.73,1.9,1.53,1.7A2.25,2.25,0,0,0,103,30C102.82,28.79,102.11,28,101.38,28.21Z"/><path class="cls-2" d="M101.83,37.19a2.45,2.45,0,0,0-1.65,2.33c-.05,1.12.62,1.88,1.54,1.77a2.22,2.22,0,0,0,1.71-2.24C103.44,37.9,102.7,37,101.83,37.19Z"/><path class="cls-2" d="M100.47,49.58a2.57,2.57,0,0,0,2.2-2,1.4,1.4,0,0,0-1.42-1.83,2.68,2.68,0,0,0-2.11,2.1C98.92,48.9,99.49,49.64,100.47,49.58Z"/><path class="cls-2" d="M96.58,55.58c-.52,1-.19,1.83.77,1.78a3.88,3.88,0,0,0,2.76-2c.48-.92,0-1.73-1-1.67A3.53,3.53,0,0,0,96.58,55.58Z"/><path class="cls-2" d="M95.34,61.66a3.19,3.19,0,0,0-2.5,1.94c-.42,1,0,1.86,1,1.88a2.87,2.87,0,0,0,2.43-1.89C96.67,62.52,96.29,61.64,95.34,61.66Z"/><path class="cls-2" d="M93.58,71.85c.27-1.07-.24-2-1.2-2.09a2.43,2.43,0,0,0-2.3,1.74,1.54,1.54,0,0,0,1.26,2.06A2.17,2.17,0,0,0,93.58,71.85Z"/><path class="cls-2" d="M91.91,80.15a2,2,0,0,0-1.51-2.32,1.88,1.88,0,0,0-2.2,1.5,2.05,2.05,0,0,0,1.56,2.3A1.72,1.72,0,0,0,91.91,80.15Z"/><path class="cls-2" d="M89.25,85.91a1.55,1.55,0,0,0-2.15,1.25A2.77,2.77,0,0,0,89,89.74a1.44,1.44,0,0,0,2.12-1.24A2.71,2.71,0,0,0,89.25,85.91Z"/><path class="cls-2" d="M88.78,97.94c1.19.55,2.14.09,2.13-1a3.56,3.56,0,0,0-2.1-2.88c-1.16-.48-2.13,0-2.14,1A3.66,3.66,0,0,0,88.78,97.94Z"/><path class="cls-2" d="M89.22,106.64c1.22.69,2.09.27,2-.91a4.61,4.61,0,0,0-2.35-3.25c-1.21-.63-2.16-.25-2.07.87A5,5,0,0,0,89.22,106.64Z"/><path class="cls-2" d="M91.14,115.73c1.17.76,1.79.61,1.51-.65A6.47,6.47,0,0,0,90,111.49c-1.21-.74-2-.39-1.68.84A6.93,6.93,0,0,0,91.14,115.73Z"/><path class="cls-2" d="M93,120.14c-.89-.57-1.4-.48-1.33.19h1.6A2.22,2.22,0,0,0,93,120.14Z"/><path class="cls-2" d="M102.07,1.2a2,2,0,0,0,.52-1.2h-1.28C101.4.91,101.73,1.42,102.07,1.2Z"/><path class="cls-2" d="M102.41,10c.28,1.45.84,2.11,1.38,1.92s.8-1.18.45-2.67-1-2.54-1.44-2.31S102.14,8.5,102.41,10Z"/><path class="cls-2" d="M104.94,17.11c-.61.15-.88,1.34-.63,2.62s1,2.18,1.66,2.08,1-1.2.65-2.52S105.54,17,104.94,17.11Z"/><path class="cls-2" d="M107.05,27c-.74.05-1.16,1.16-1,2.42s1,2.2,1.78,2.19,1.28-1,1-2.3S107.8,27,107.05,27Z"/><path class="cls-2" d="M107.06,38.85a2.11,2.11,0,0,0,1.69,2.2c.91.06,1.62-.81,1.53-2s-.91-2.29-1.78-2.32S107,37.66,107.06,38.85Z"/><path class="cls-2" d="M107.93,49.68A2,2,0,0,0,110,48a1.87,1.87,0,0,0-1.46-2.22,2.05,2.05,0,0,0-2,1.87A1.64,1.64,0,0,0,107.93,49.68Z"/><path class="cls-2" d="M104.62,57.52a3.36,3.36,0,0,0,2.81-1.76,1.2,1.2,0,0,0-.85-1.94A2.94,2.94,0,0,0,104,55.41C103.42,56.48,103.69,57.42,104.62,57.52Z"/><path class="cls-2" d="M101,66.06a2.47,2.47,0,0,0,2.37-1.78c.42-1.13.07-2.17-.84-2.28A2.69,2.69,0,0,0,100,63.83C99.6,64.94,100.05,65.92,101,66.06Z"/><path class="cls-2" d="M97.45,72.43a1.93,1.93,0,0,0,1.3,2.41,1.9,1.9,0,0,0,2.1-1.73,1.94,1.94,0,0,0-1.22-2.44A2.08,2.08,0,0,0,97.45,72.43Z"/><path class="cls-2" d="M96,81.18a2.54,2.54,0,0,0,1.65,2.63c1,.3,1.89-.42,2-1.61a2.51,2.51,0,0,0-1.59-2.64A1.67,1.67,0,0,0,96,81.18Z"/><path class="cls-2" d="M97.49,92.92c1.09.42,2-.23,1.93-1.45a3.2,3.2,0,0,0-1.93-2.86,1.44,1.44,0,0,0-2,1.45A3.26,3.26,0,0,0,97.49,92.92Z"/><path class="cls-2" d="M97.85,102.14c1.17.53,2.05,0,2-1.28a3.91,3.91,0,0,0-2.19-3.08c-1.14-.48-2,.08-2,1.25A4,4,0,0,0,97.85,102.14Z"/><path class="cls-2" d="M98.58,111.7c1.21.63,2.07.07,1.94-1.2a4.67,4.67,0,0,0-2.38-3.34c-1.2-.58-2.11-.08-2,1.15A4.85,4.85,0,0,0,98.58,111.7Z"/><path class="cls-2" d="M99.27,116.9c-1.2-.66-2-.18-1.77,1.12a4.65,4.65,0,0,0,1.39,2.31h2.89A5.53,5.53,0,0,0,99.27,116.9Z"/><path class="cls-2" d="M105.84,0h-.61a.52.52,0,0,0,.32.15A.36.36,0,0,0,105.84,0Z"/><path class="cls-2" d="M108.1,11.41c.59.08.81-.72.34-2.3s-1.23-2.93-1.77-3-.68,1.2-.27,2.75S107.51,11.33,108.1,11.41Z"/><path class="cls-2" d="M111.26,22c.71.16.94-.79.49-2.19s-1.34-2.69-2-2.81-.86.95-.47,2.32S110.56,21.83,111.26,22Z"/><path class="cls-2" d="M112.87,27.57c-.77-.2-1.11.79-.79,2.13a3.85,3.85,0,0,0,2,2.76c.83.23,1.23-.62.86-2S113.64,27.76,112.87,27.57Z"/><path class="cls-2" d="M113.9,39.66a3.22,3.22,0,0,0,1.84,2.71c.91.29,1.57-.42,1.39-1.69a3.68,3.68,0,0,0-1.95-2.88C114.31,37.54,113.76,38.41,113.9,39.66Z"/><path class="cls-2" d="M115.8,47.23c-.94-.31-1.75.42-1.91,1.53a2.23,2.23,0,0,0,1.34,2.49,1.54,1.54,0,0,0,2.06-1.35A2.58,2.58,0,0,0,115.8,47.23Z"/><path class="cls-2" d="M111.64,59a2.79,2.79,0,0,0,2.85-1.35,1.47,1.47,0,0,0-.69-2.28,2.42,2.42,0,0,0-2.61,1.19C110.52,57.63,110.75,58.71,111.64,59Z"/><path class="cls-2" d="M109.4,63.48A2.2,2.2,0,0,0,107,65.07a1.87,1.87,0,0,0,.9,2.55c.88.28,1.87-.41,2.29-1.55S110.28,63.76,109.4,63.48Z"/><path class="cls-2" d="M106.66,72.4c-.9-.28-1.85.48-2,1.67a2.4,2.4,0,0,0,1.34,2.7c.92.3,1.77-.44,2-1.65A2.41,2.41,0,0,0,106.66,72.4Z"/><path class="cls-2" d="M105.42,86.3c1,.35,1.77-.4,1.78-1.66a3.05,3.05,0,0,0-1.67-2.87c-1-.32-1.81.43-1.86,1.67A3,3,0,0,0,105.42,86.3Z"/><path class="cls-2" d="M105.56,91.46c-1-.38-1.86.34-1.79,1.6a3.64,3.64,0,0,0,2.08,3c1.07.4,1.84-.33,1.74-1.62A3.65,3.65,0,0,0,105.56,91.46Z"/><path class="cls-2" d="M106.77,106c1.15.47,2-.23,1.81-1.54a4.13,4.13,0,0,0-2.28-3.14c-1.11-.44-1.94.23-1.82,1.5A4.15,4.15,0,0,0,106.77,106Z"/><path class="cls-2" d="M107.82,116.09c1.19.51,2-.18,1.88-1.51a4.43,4.43,0,0,0-2.41-3.26c-1.18-.49-2,.14-1.9,1.45A4.54,4.54,0,0,0,107.82,116.09Z"/><path class="cls-2" d="M109.72,1.54c.55.33.85-.34.82-1.54h-1.82A3.11,3.11,0,0,0,109.72,1.54Z"/><path class="cls-2" d="M111.14,7.75c-.63-.39-.76.65-.24,2.28a6.21,6.21,0,0,0,2,3.23c.67.41.89-.13.33-1.78S111.77,8.13,111.14,7.75Z"/><path class="cls-2" d="M117.32,22.62A8.4,8.4,0,0,0,115,19.1c-.72-.44-.88.44-.38,1.87a7.43,7.43,0,0,0,2.28,3.38C117.68,24.82,117.87,24.09,117.32,22.62Z"/><path class="cls-2" d="M119,30.21c-.81-.5-1.09.32-.67,1.72a6.73,6.73,0,0,0,2.28,3.41c.85.53,1.22-.11.75-1.54A7.71,7.71,0,0,0,119,30.21Z"/><path class="cls-2" d="M122,40.91c-.89-.55-1.39.15-1.18,1.45a5.09,5.09,0,0,0,2,3.28c.91.57,1.54.07,1.31-1.25A5.85,5.85,0,0,0,122,40.91Z"/><path class="cls-2" d="M124.45,53.78A3.63,3.63,0,0,0,123,50.6c-.93-.57-1.71,0-1.86,1.09a3.1,3.1,0,0,0,1.31,3A1.24,1.24,0,0,0,124.45,53.78Z"/><path class="cls-2" d="M121.28,61.35a1.81,1.81,0,0,0-.49-2.66,2,2,0,0,0-2.67.67,1.83,1.83,0,0,0,.29,2.74A2.31,2.31,0,0,0,121.28,61.35Z"/><path class="cls-2" d="M116.76,69.2a2.35,2.35,0,0,0-.71-2.85,1.74,1.74,0,0,0-2.36,1.2,2.29,2.29,0,0,0,.85,2.81C115.4,70.8,116.34,70.29,116.76,69.2Z"/><path class="cls-2" d="M113.45,75.07c-.87-.42-1.76.24-1.91,1.45a2.88,2.88,0,0,0,1.38,2.9c.89.4,1.66-.24,1.79-1.44A3,3,0,0,0,113.45,75.07Z"/><path class="cls-2" d="M112.94,89.07c1,.38,1.64-.35,1.58-1.62a3.57,3.57,0,0,0-1.76-3c-.92-.39-1.69.34-1.66,1.61A3.47,3.47,0,0,0,112.94,89.07Z"/><path class="cls-2" d="M114,99.08c1,.37,1.72-.4,1.53-1.71a4,4,0,0,0-2.13-3c-1-.37-1.72.38-1.58,1.69A3.89,3.89,0,0,0,114,99.08Z"/><path class="cls-2" d="M115.5,109.23c1.12.37,1.85-.43,1.63-1.75a4.12,4.12,0,0,0-2.36-3c-1.08-.37-1.82.39-1.64,1.71A4.07,4.07,0,0,0,115.5,109.23Z"/><path class="cls-2" d="M116.87,119.39c1.17.35,2-.47,1.8-1.78a3.89,3.89,0,0,0-2.41-3c-1.16-.36-2,.39-1.79,1.72A3.87,3.87,0,0,0,116.87,119.39Z"/><path class="cls-2" d="M114.5.8c-.74-.75-1.38-.25-1.29,1.15a7.34,7.34,0,0,0,1.61,3.92c.92.94,1.53.44,1.43-1A7.23,7.23,0,0,0,114.5.8Z"/><path class="cls-2" d="M116.44,12.23c-.75-.77-.92,0-.32,1.66a12,12,0,0,0,2.36,4c.92.93,1.35.67.73-1A15.15,15.15,0,0,0,116.44,12.23Z"/><path class="cls-2" d="M120.5,25.22a14.53,14.53,0,0,0,2.58,4.14c.91.91,1.2.38.59-1.12a15.35,15.35,0,0,0-2.79-4.31C120.07,23.11,119.91,23.73,120.5,25.22Z"/><path class="cls-2" d="M124.82,36.59a11.79,11.79,0,0,0,1,2V35.77a3.75,3.75,0,0,0-.33-.35C124.57,34.56,124.31,35.13,124.82,36.59Z"/><path class="cls-2" d="M125.77,63.55a2.1,2.1,0,0,0-1,.59,2.14,2.14,0,0,0,.13,3,2.72,2.72,0,0,0,.88.54Z"/><path class="cls-2" d="M123.41,74a2.91,2.91,0,0,0-1-3.13,1.4,1.4,0,0,0-2.3.61,2.73,2.73,0,0,0,.81,3A1.5,1.5,0,0,0,123.41,74Z"/><path class="cls-2" d="M119.62,82.87c1,.61,1.92.17,2-.93A3.83,3.83,0,0,0,120,78.79c-.83-.56-1.65-.07-1.75,1.08A3.42,3.42,0,0,0,119.62,82.87Z"/><path class="cls-2" d="M120.19,92.06c1.07.48,1.82-.11,1.69-1.3a4.44,4.44,0,0,0-2.15-3.11c-.87-.45-1.56.2-1.45,1.43A3.9,3.9,0,0,0,120.19,92.06Z"/><path class="cls-2" d="M121.89,101.72c1.1.36,1.8-.35,1.54-1.59a4.48,4.48,0,0,0-2.44-3c-.95-.36-1.59.39-1.36,1.68A4,4,0,0,0,121.89,101.72Z"/><path class="cls-2" d="M124,111.55c1.13.24,1.85-.57,1.57-1.82a4.06,4.06,0,0,0-2.55-2.81c-1-.28-1.7.54-1.45,1.83A3.72,3.72,0,0,0,124,111.55Z"/><path class="cls-2" d="M125.77,117a2.28,2.28,0,0,0-.8-.29c-1.11-.18-1.85.68-1.66,2a3.27,3.27,0,0,0,.81,1.68h1.65Z"/><path class="cls-2" d="M123.37,2.17a2.07,2.07,0,0,0,2.4,0V0h-3.49A2.53,2.53,0,0,0,123.37,2.17Z"/><path class="cls-2" d="M122.55,12.19c1.06.71,1.72,0,1.63-1.36a5.28,5.28,0,0,0-2-3.72c-1.06-.71-2-.27-1.88,1.13A6,6,0,0,0,122.55,12.19Z"/><path class="cls-2" d="M124.11,18.51c-1-.71-1.47,0-.86,1.67a8.89,8.89,0,0,0,2.52,3.71V20.3A7,7,0,0,0,124.11,18.51Z"/></g></g></g></svg>