<svg xmlns="http://www.w3.org/2000/svg" viewBox="0 0 131.32 121.03"><defs><style>.cls-1{opacity:0.9;}</style></defs><g id="圖層_2" data-name="圖層 2"><g id="Graphic_Elements" data-name="Graphic Elements"><g class="cls-1"><path d="M122.59,74a1.34,1.34,0,0,1-.13.23v0A7.6,7.6,0,0,1,121,75.81a10.9,10.9,0,0,1-4.53,2,19,19,0,0,1-3.94.42c-9.13.09-20.73-5-28.88-12.05a39.37,39.37,0,0,1-5.22-5.48l-.28-.36a26.48,26.48,0,0,1-2-3.11l.32-.15.87-.36a.67.67,0,0,0,.23-.1,4.89,4.89,0,0,0,2.61-3.06c.13-.35.24-.73.35-1.13a.64.64,0,0,1,0-.07c.08-.37.16-.75.23-1.17.1-.61.16-1.26.21-2a31.62,31.62,0,0,0-.2-5.33,50.66,50.66,0,0,0-1.22-6.74c-.35-1.41-.75-2.85-1.2-4.3a73.32,73.32,0,0,0-7.81-17c-.7-1.07-1.41-2.1-2.14-3.07-.19-.26-.37-.5-.56-.73A28.78,28.78,0,0,0,64,8a10.12,10.12,0,0,0-4.86-2.57,4.72,4.72,0,0,0-1.36,0h0l-1.12.44.18-.11L57,5.75l-.15.06-2,.83-.38.17s0,0,0,0h0c-1.28.56-2.94,1.38-4.22,2a1.68,1.68,0,0,1,.65-.16A3.34,3.34,0,0,1,52,8.8,12.24,12.24,0,0,1,56.43,12a42.22,42.22,0,0,1,3.88,4.53c.08.1.15.22.23.32.88,1.18,1.75,2.43,2.6,3.73a103.69,103.69,0,0,1,7.56,14c.66,1.5,1.28,3,1.85,4.48a71.17,71.17,0,0,1,2.38,7.21,37.2,37.2,0,0,1,1,5.23c.08.66.13,1.26.15,1.82a12.43,12.43,0,0,1-.1,2.11A3.11,3.11,0,0,1,74.62,58h0l-.1.06a29.58,29.58,0,0,0,2.59,4h0l.39.51c7.64,9.8,21.9,18.76,32.2,20.17a17.8,17.8,0,0,0,2.91.19,9.45,9.45,0,0,0,4-.85,5.32,5.32,0,0,0,1.65-1.23l.27-.34,0,0,.36-.52,0,0a1.5,1.5,0,0,0,.15-.23s0,0,0,0c.3-.43.62-.92.94-1.4s.78-1.21,1.15-1.84l.32-.5c0-.09.11-.17.15-.25l.16-.25.42-.74c.13-.21.24-.42.36-.62l.36-.62a1,1,0,0,1,.09-.18.42.42,0,0,0-.08.12c0,.08-.09.16-.14.23l.28-.49h0l-.34.59C122.7,73.81,122.64,73.9,122.59,74Z"/><path d="M34.48,18.5h0Z"/><path d="M111.44,89.23a2.78,2.78,0,0,1-1.59.58,8.82,8.82,0,0,1-3-.39,19.9,19.9,0,0,1-2-.67,58,58,0,0,1-13.23-8.14,95.68,95.68,0,0,1-8.05-7,79.9,79.9,0,0,1-8.32-9.29,40.9,40.9,0,0,1-3-4.46c-.1-.15-.18-.31-.27-.46s0,0,0,0l-.91.55-.06,0c-.19.12-.38.26-.6.39l-.11,0c.15-.09.23-.31.23-.63a4.79,4.79,0,0,0-.19-1.18c-.13-.46-.31-1-.56-1.68-.18-.46-.39-1-.63-1.56-.64-1.45-1.45-3.13-2.4-5-1.3-2.5-2.86-5.27-4.57-8.16-3.15-5.31-6.84-11-10.39-16-.86-1.21-1.72-2.38-2.55-3.5s-1.74-2.28-2.52-3.22a37.18,37.18,0,0,0-4.34-4.7,4.41,4.41,0,0,0-1-.63.86.86,0,0,0-.56-.12h0a1.11,1.11,0,0,0-.16.11l0,0-.24.16c-.61.39-1.22.78-1.77,1.15-.07.06-.15.1-.22.15l-.08.06c-.64.44-1.38,1-2.12,1.5h0a1.56,1.56,0,0,0-.19.14c-.07.06-.14.1-.21.15-.26.17-.5.35-.74.52l-.22.16a.61.61,0,0,1-.14.1.13.13,0,0,1-.07.06s0,0,0,0l-.07,0a.38.38,0,0,1-.11.08l0,0,.46.57.89,1.16c1,1.35,2.65,3.49,4.8,6.33L41.71,28l6.51,8.67,4.35,5.82c3.06,4.11,6,8.08,8.49,11.41l3.47,4.69q.54.72,1,1.32c.4.54.74,1,1,1.36.58.81.86,1.2.86,1.22-.45.34-1,.74-1.41,1.09a1.4,1.4,0,0,1-.2.16l0,0,0,0h0c.52.62,1.08,1.3,1.69,2.06.74.93,1.55,2,2.43,3.14h0c.93,1.25,1.9,2.56,2.87,3.92,3.44,4.8,7,10.19,10.17,15.23,1.75,2.8,3.36,5.49,4.73,7.92,1.08,1.91,2,3.65,2.74,5.15l.16-.11-.16.11c.26.53.49,1,.68,1.46a16.51,16.51,0,0,1,.74,1.89c.24.74.29,1.21.15,1.4a.08.08,0,0,1,0,0l.56-.36.4-.27,0,0c1.35-.93,3-2.17,4.47-3.22l.75-.56h0a6,6,0,0,1-.77-.8c-.34-.4-.79-.94-1.33-1.6-.32-.37-.65-.79-1-1.24l-.16.12.16-.12c-1.16-1.44-2.56-3.19-4.11-5.15-3.26-4.12-7.2-9.18-11.08-14.23l-.07-.1c-2.84-3.69-5.65-7.38-8.14-10.68h0c-.33-.45-.66-.87-1-1.28-1.27-1.68-2.26-3-3.06-4.11.22-.16.44-.34.67-.5l.64-.46.38-.26s0,0,.05,0l.09-.06a2.2,2.2,0,0,0,.25-.17h0l.54-.36a57.9,57.9,0,0,0,3.64,5.3c.85,1.15,1.77,2.32,2.74,3.49a156.56,156.56,0,0,0,17.37,18,68.67,68.67,0,0,0,7,5.47c.54.36,1.05.66,1.51.92a10.52,10.52,0,0,0,2.28,1,1.81,1.81,0,0,0,1.38,0l.06-.05.07-.06,0,0,0,0,.72-.68,0,0,0,0,.38-.36c.5-.48,1-1,1.54-1.55l.35-.36.86-.91,0,0,0,0,.06-.06.79-.86-.08.08.07-.08.22-.24a.34.34,0,0,0,.06-.06l.14-.16a.47.47,0,0,0-.1.1Z"/><path d="M111.78,88.9l0-.07a3.22,3.22,0,0,0-.24.28Z"/><path d="M3.89,95.52c.06.13.12.25.17.38l.22.43c-.22-.48-.45-1-.66-1.45Z"/><path d="M54.84,75.94c0,.13,0,.26,0,.39,0-.09,0-.2,0-.33Z"/><path d="M131.23,41.13V41c0-.11,0-.23,0-.33,0-.26,0-.54-.06-.82s0-.53-.08-.79v0l0,.47c.06.79.1,1.45.13,2,0-.57-.07-1.23-.13-2,.33,6-1.88,14.15-13.72,20.45,0,.16,0,.32,0,.48,0-.16,0-.32,0-.48a33.4,33.4,0,0,1-6,2.23,35.19,35.19,0,0,1-9,1.18c-8.1,0-15.87-2.82-20.85-8,.22-.06.45-.11.66-.15l.29-.06h0l.21,0c5.75,4.76,14.16,6.43,22.49,4.7a33.11,33.11,0,0,0,7.24-2.36,36.85,36.85,0,0,0,3.79-2.06c11.06-7,15.72-18.88,11.82-28.45L127.18,25a1.19,1.19,0,0,1-.08-.16c-.23-.51-.47-1-.7-1.42s-.55-1.06-.89-1.63l-.4-.68c-.23-.36-.46-.74-.73-1.15A19.73,19.73,0,0,1,127,29.66a24.08,24.08,0,0,1-1.25,8,30.75,30.75,0,0,1-11.1,14.91,31.3,31.3,0,0,1-3.15,2,32.36,32.36,0,0,1-6.06,2.72c-7.89,2.57-16.08,1.75-22-2.31h0l.74-.15c5.79,2.93,13.07,2.77,19.88-.47a31,31,0,0,0,7.52-5.08A33.17,33.17,0,0,0,118.71,40c4.26-8.15,4.79-17.51,1-24.63a17.48,17.48,0,0,0-1.6-2.48,17.8,17.8,0,0,0-3.61-3.64c-1.18-.87-2.83-1.93-4.07-2.73h0l0,0c-.43-.26-.87-.51-1.29-.73-.18-.11-.36-.2-.54-.29l-.2-.1L107.47,5l-.1-.06-.08,0-.1,0-.27-.13,0,0h0l-.24-.12.06,0-.22-.1,0,0-.65-.28h0l1.18.53.64.33h0a17.44,17.44,0,0,1,4.82,4c.29.32.57.66.83,1,5.84,7.77,5.87,19.62.86,29.55a34.19,34.19,0,0,1-5.56,7.93h0v0a30.31,30.31,0,0,1-2.25,2.16,27.81,27.81,0,0,1-4.2,3c-5.89,3.46-12.32,4.16-17.76,2.05A11.23,11.23,0,0,0,90,50.83a19,19,0,0,0,1.79-2.69c.37-.69.71-1.41,1-2.19h-.1l.1,0a29.55,29.55,0,0,0,1.7-5.75A40.08,40.08,0,0,0,95.26,33a45.34,45.34,0,0,0-.19-4.79A44.22,44.22,0,0,0,89.7,10.5a32.56,32.56,0,0,0-2-3L87,6.54a19.48,19.48,0,0,0-4.3-3.94,11.5,11.5,0,0,0-5.56-2,9.49,9.49,0,0,0-1.41,0l-.45,0-3.12.53-.09,0-.18,0-.2,0c-1.19.25-2.64.6-3.81.87a7.64,7.64,0,0,1,1.59-.1,10.23,10.23,0,0,1,5.39,2.09,21.3,21.3,0,0,1,3.91,3.72c.33.38.65.79,1,1.21.47.62.93,1.28,1.36,2a51.83,51.83,0,0,1,7.17,19.08c.26,1.54.46,3.08.58,4.59a43.67,43.67,0,0,1,0,6.76,29.49,29.49,0,0,1-.91,5.46v0a19.31,19.31,0,0,1-.71,2.11,15.36,15.36,0,0,1-1.29,2.6,8.12,8.12,0,0,1-4.65,3.74l0,0-.09,0-.59.16h0c4,4.81,10.08,8.1,16.85,9.53a36.61,36.61,0,0,0,11,.66,33.79,33.79,0,0,0,9-2.1c8.21-3.45,12.69-8.6,13.73-15.71l0-.25a.18.18,0,0,1,0-.1c0-.38,0-.77,0-1.19,0-.12,0-.22,0-.32v-.08c0-.69.05-1.25.06-1.76,0,.53,0,1.12,0,1.83v0c0-.67.06-1.33.07-1.91C131.34,43.29,131.29,42.11,131.23,41.13Z"/><path d="M83.57,105.19A43.27,43.27,0,0,0,82.34,100c-.69-2.26-1.58-4.72-2.62-7.25-.78-1.89-1.64-3.8-2.56-5.72A111.7,111.7,0,0,0,70.8,75.61c-.93-1.45-1.88-2.85-2.83-4.17l-.7-1a44.94,44.94,0,0,0-3.73-4.43l-.22-.22.1-.11c-.31.29-1,.23-1.92-.21a16.39,16.39,0,0,1-1.64-.91c-.44-.28-.92-.6-1.43-1h0a75.79,75.79,0,0,1-6.21-5.13A178.93,178.93,0,0,1,33.9,38.91c-.73-.91-1.43-1.82-2.1-2.7a59.91,59.91,0,0,1-4.51-6.71,16,16,0,0,1-1-2.14c-.34-.9-.4-1.54-.19-1.87,0,0,0,0,0,0l.1-.09-.17.14-.76.73-1,1-.4.39h0l-.86.87c-.59.6-1.19,1.22-1.72,1.78-.13.15-.27.29-.4.43a.77.77,0,0,0-.15.16.81.81,0,0,0-.09.1s0,0,0,.05c-.53.74-.53,1.95,0,3.57a18.46,18.46,0,0,0,1.36,3,41.76,41.76,0,0,0,3.37,5.09,80,80,0,0,0,6.47,7.53A106.81,106.81,0,0,0,42.9,60.27,58.54,58.54,0,0,0,54.43,67.6h0c.69.3,1.3.55,1.89.74a10,10,0,0,0,2.23.5,2.76,2.76,0,0,0,2.35-.62l0,0a.6.6,0,0,0,.08-.08l.14-.13.33-.35.36-.37A36.17,36.17,0,0,1,65,70.8l.43.57c.74,1,1.47,2,2.18,3.14a78,78,0,0,1,7.92,16.62c.48,1.43.92,2.85,1.3,4.25a55.75,55.75,0,0,1,1.45,6.9,32.6,32.6,0,0,1,.34,5.24,17.22,17.22,0,0,1-.12,1.83,11.87,11.87,0,0,1-.52,2.47,4.71,4.71,0,0,1-2,2.76l-.11,0-.54.22.32-.1,1.28-.56h0c1.48-.66,3.34-1.57,4.91-2.35l.75-.35.23-.15a3.17,3.17,0,0,0,1-2.2,11.78,11.78,0,0,0,0-2.23Q83.71,106.11,83.57,105.19Z"/><path d="M71.51,93.14a54.26,54.26,0,0,0-7.09-18.48c-.52-.83-1.07-1.62-1.63-2.37l-.08,0-.08,0,.16,0c-.29-.38-.57-.74-.86-1.09a26.93,26.93,0,0,0-1.86-2l-.31.36,0,0h0l0,.06,0,0,0,.05,0,0h0l-.57.71c.36.38.72.78,1.08,1.21s.56.69.84,1.06l.16,0H61l-.11,0a30.07,30.07,0,0,1,1.75,2.59,45.37,45.37,0,0,1,5.86,18.33c.15,1.47.24,2.93.26,4.38a40.69,40.69,0,0,1-.55,7.32,30.42,30.42,0,0,1-1.55,5.76l.2,0-.2,0c-.29.74-.61,1.44-.94,2.1a17.36,17.36,0,0,1-1.84,2.9,10.37,10.37,0,0,1-5.56,3.83l-.21,0-1.09.19.63-.08h0l1.6-.29.12,0,.06,0,.11,0,.6-.12,1.64-.34c.66-.15,1.32-.31,1.92-.47l.38-.11.69-.2.15,0,.75-.2.23-.08,0,0a7.85,7.85,0,0,0,3.76-3.41,14.64,14.64,0,0,0,1.29-2.78c.21-.61.41-1.26.58-2l-.21,0,.21,0a30.5,30.5,0,0,0,.76-5.52,43.06,43.06,0,0,0-.25-7.12C72,96,71.78,94.55,71.51,93.14Z"/><path d="M60,111.67a31.58,31.58,0,0,0,2.7-6.13,38.4,38.4,0,0,0,1.7-8.66,42.62,42.62,0,0,0,0-6.19,36.49,36.49,0,0,0-3.2-12.94,26.15,26.15,0,0,0-2.24-4l-.61-.84c-.22-.29-.44-.57-.67-.84a2,2,0,0,0,.18-.26l.12-.17A4.7,4.7,0,0,1,56,73.24a7.6,7.6,0,0,1-1.53.43l-.15,0a12.17,12.17,0,0,1-1.87.12,17,17,0,0,1-2.88-.27C39.26,71.8,24.85,62.28,17.33,52.29c-.26-.35-.52-.7-.76-1a25.94,25.94,0,0,1-2.68-4.71c-1.21-2.89-1.33-5.26-.39-6.9a2.25,2.25,0,0,1,.12-.21l-1.28,1.79-.07.11,0,0a.7.7,0,0,0-.06.09l-.68,1c-.3.45-.63.94-.94,1.42l-1,1.61a.28.28,0,0,1-.06.08l0,.09a.33.33,0,0,1,0,.06.35.35,0,0,1,0,.08s0,0,0,0a.39.39,0,0,1-.06.11h0l-.17.34c-1.32,2.63-.88,6.26,1.49,10.39a30.09,30.09,0,0,0,1.9,2.86,36.2,36.2,0,0,0,2.9,3.39C23.51,71.35,36.58,77.83,46.56,78a18.08,18.08,0,0,0,4-.31,10.17,10.17,0,0,0,4.4-1.89.08.08,0,0,1,0,0c2.49,9.2-2.19,20-12.38,26.66h0a33.22,33.22,0,0,1-3.9,2.17,33.64,33.64,0,0,1-6.62,2.32c-10.12,2.37-20.46-.34-26-7.72a21,21,0,0,1-1.56-2.44c.22.45.43.84.62,1.2.46.86.84,1.55,1.28,2.25.57.9,1.22,1.84,2.21,3.26l0,0a.25.25,0,0,0,.07.08c.2.26.41.55.65.82a5.27,5.27,0,0,0,.43.51c6,6.76,16.28,8.47,26,5a33,33,0,0,0,5.41-2.58,31.27,31.27,0,0,0,3.1-2.1l-.09-.13c.52.07,1-.76,1.36-1.08l.94-.83.31-.27c.17-.15.32-.31.49-.48l.1-.09.45-.44.13-.12c.1-.12.22-.24.32-.34l.16-.18.28-.29c.06-.07.12-.13.17-.2a3.79,3.79,0,0,0,.26-.29l.17-.2.24-.28.18-.2a.56.56,0,0,0,0-.08c.07-.07.13-.15.19-.22l.15-.2a3.92,3.92,0,0,0,.25-.32l.14-.17.31-.42a.21.21,0,0,0,.06-.08l.31-.44a.19.19,0,0,0,.06-.07l.11-.15a1.1,1.1,0,0,1,.09-.14l0-.06a.27.27,0,0,0,.06-.1.22.22,0,0,0,0-.06,1.56,1.56,0,0,1,.13-.19c0-.09.11-.17.16-.25l0-.07h0l.06-.1.07-.11.2-.31,0-.08s0,0,0,0a.75.75,0,0,1,.07-.12l.18-.31c0-.07.08-.14.13-.21a.29.29,0,0,0,0-.08.05.05,0,0,0,0,0l.07-.12,0-.09a2.25,2.25,0,0,0,.12-.21.47.47,0,0,1,.06-.09l0-.08.08-.14s0,0,0,0a1,1,0,0,1,.1-.18.3.3,0,0,1,0-.08l.11-.21a.55.55,0,0,1,.08-.15.14.14,0,0,1,0-.06s0,0,0,0l0-.07c0-.08.07-.16.1-.23l.12-.25a0,0,0,0,0,0,0,.11.11,0,0,0,0-.06L54,93a.36.36,0,0,1,0-.09.46.46,0,0,1,.07-.16.43.43,0,0,0,0,0l0,0a.34.34,0,0,1,0-.08.54.54,0,0,0,0-.11c0-.09.08-.17.11-.26s0-.08.05-.12a1.17,1.17,0,0,1,0-.11s0,0,0,0a0,0,0,0,1,0,0,.2.2,0,0,1,0-.08,1,1,0,0,0,0-.14.06.06,0,0,0,0,0,.27.27,0,0,0,.06-.12s0-.09,0-.13.05-.14.08-.22a.5.5,0,0,0,0-.13.41.41,0,0,0,0-.09s0-.06,0-.09.06-.16.1-.25l.07-.21s0,0,0,0,.1-.29.14-.43,0-.13,0-.2,0,0,0,0,.07-.24.1-.36l0-.1a.47.47,0,0,0,0-.09c0-.15.1-.32.14-.47a2.25,2.25,0,0,0,.05-.22,4.17,4.17,0,0,0,.14-.56,1.25,1.25,0,0,0,.07-.31,3.73,3.73,0,0,0,.12-.56c0-.08,0-.16,0-.24s0,0,0,0,0-.18,0-.27a4,4,0,0,0,.09-.57.22.22,0,0,0,0-.11,3.31,3.31,0,0,0,0-.33.22.22,0,0,1,0-.08s0-.07,0-.1l0-.27,0-.38a.16.16,0,0,0,0-.09v0a.25.25,0,0,0,0-.09.13.13,0,0,1,0-.06v-.11a.57.57,0,0,0,0-.13.86.86,0,0,0,0-.16s0-.07,0-.12v-.1a.5.5,0,0,0,0-.16v-.06a.45.45,0,0,0,0-.12v-.18a.66.66,0,0,0,0-.14V83h0v-.07c0-.06,0-.13,0-.2v-.56a.57.57,0,0,0,0-.13v-.36a.22.22,0,0,1,0-.08v-.09c0-.06,0-.13,0-.2v-.06s0,0,0,0h0s0,0,0,0V81a.15.15,0,0,0,0-.07h0a.76.76,0,0,0,0-.15,1,1,0,0,0,0-.17.86.86,0,0,0,0-.15v0s0,0,0-.07v-.07s0,0,0-.07a.17.17,0,0,0,0-.07v0c0-.06,0-.13,0-.19v-.06l0-.2v-.08a.45.45,0,0,1,0-.11.28.28,0,0,0,0-.09.17.17,0,0,0,0-.07,1,1,0,0,0,0-.18s0,0,0,0l0-.23h0s0,0,0-.06v0s0-.11,0-.17a2.56,2.56,0,0,0,0-.27s0-.07,0-.11,0-.06,0-.08,0-.07,0-.1l-.06-.23s0-.08,0-.13a.84.84,0,0,0,0-.12l0-.13a.36.36,0,0,0,0-.1s0-.06,0-.08,0-.14-.05-.21l-.07-.24a0,0,0,0,0,0,0,.53.53,0,0,0,0-.12,0,0,0,0,1,0,0s0,0,0,0h0a.11.11,0,0,0,0,0c0-.12-.07-.24-.12-.37l.09-.19.38-.75c3.34,7.14,2.64,16.29-1.57,24.25a33.65,33.65,0,0,1-6.74,8.84l0,0,0,0c-.82.73-1.66,1.42-2.5,2a32.71,32.71,0,0,1-4.46,2.85c-7.39,3.88-15.05,3.9-21.83-.13l-.14-.08.18.12.59.4.25.17.13.08.24.15c.33.21.65.4,1,.58l.13.07,1.17.66,0,0,.9.47c.57.3,1.11.56,1.78.87l1.25.55.09,0-.05,0c-.36-.15-.72-.32-1.07-.5.83.36,1.73.72,2.6,1.07,5.16,1.62,11.07.75,16.49-2.53a28.39,28.39,0,0,0,4.17-3.11q1.09-1,2.13-2.13l-.06,0,.07,0a34.21,34.21,0,0,0,8.87-23.23,28.5,28.5,0,0,0-.28-3.6,24.3,24.3,0,0,0-2.91-8.71h0c.09-.16.19-.31.27-.46s0,0,0,0a2.39,2.39,0,0,0,.13-.21l.34-.54A20,20,0,0,1,58.6,75.6a28.3,28.3,0,0,1,2.88,8l.27,1.5a36.69,36.69,0,0,1,.11,10.1,37.71,37.71,0,0,1-2.49,9.53,32.36,32.36,0,0,1-3.63,6.58c-.57.78-1.16,1.52-1.76,2.21a24,24,0,0,1-3.26,3.08,16.81,16.81,0,0,1-12.21,3.84l2.35.27h0l.22,0,.51,0,.28,0,.35,0-.36,0,1.26.08c.52,0,1,.06,1.46.07h1.86c.27,0,.53,0,.79,0A14.37,14.37,0,0,0,56,116.91a21.56,21.56,0,0,0,2.62-3C59.08,113.22,59.56,112.47,60,111.67Z"/><path d="M4.46,96.7l0,.06-.08-.16Z"/><path d="M123.56,18.69c.29.42.56.84.82,1.28Z"/><path d="M125.81,64.39a19.92,19.92,0,0,1-9.45,5l0,.07a.19.19,0,0,1,0-.07,35.69,35.69,0,0,1-16.25-.08,40.81,40.81,0,0,1-11.89-4.71A30.16,30.16,0,0,1,79.59,57v0c-.23-.3-.44-.6-.65-.91l-.83.3-.5.2a23.94,23.94,0,0,0,1.39,2l0-.09a.36.36,0,0,0,0,.09,31,31,0,0,0,3.82,4.17,40.89,40.89,0,0,0,7.8,5.55c7.56,4.19,16.58,6.38,24.16,5.35l.26-.62-.26.62A19.68,19.68,0,0,0,121,71.91a11.57,11.57,0,0,0,4.76-4.23l.09-.13c.1-.19.2-.37.29-.56a1.09,1.09,0,0,0,.08-.15l.15-.33,0,0c.18-.46.37-1,.56-1.46a2.31,2.31,0,0,0,.1-.28c.6-1.59,1.23-3.35,1.75-4.9l0-.06v0A13,13,0,0,1,125.81,64.39Z"/><path d="M26.39,101.56a33.85,33.85,0,0,0,9-1.35,33,33,0,0,0,5.83-2.3C50.5,93.22,55.47,85.13,55,77.27c0-.25,0-.5-.07-.75,0,.19,0,.36,0,.67v0a11.91,11.91,0,0,1-5.17,5.08,20.24,20.24,0,0,1-6.36,2h0c-7.26,1.16-15.79-.59-23.14-4.26a39.66,39.66,0,0,1-9.34-6.36,29.85,29.85,0,0,1-3.54-3.88c-3.5-4.66-4.52-9.25-3.35-13,0,0,0-.12.06-.18s0,0,0,0v0c.08-.22.16-.43.26-.64-.07.15-.13.32-.2.47l-.38,1,0,.06a.13.13,0,0,0,0,.07c-.1.29-.21.58-.32.88s-.17.5-.27.76-.15.43-.22.63c-.36,1-.76,2.4-1.06,3.52,0,.12-.06.23-.08.34s0,.06,0,.08h0s0,0,0,0C.08,72,5.81,79.9,14.62,84.74A39.73,39.73,0,0,0,26.73,89,37.93,37.93,0,0,0,42,88.67h0c5.48-1.5,8.63-4,10.45-6.35a14.8,14.8,0,0,0,2.5-4.85,15.48,15.48,0,0,1-2.61,8c-2,3-5.41,6.18-11.21,8.8h0a37.24,37.24,0,0,1-19.4,1.87C10,94.1.72,86.41.07,76c0-.18,0-.38,0-.57v.22s0,.11,0,.17v.1c0,.15,0,.3,0,.45l0,.43c0,.07,0,.13,0,.19,0,.23,0,.46,0,.69s0,.75.05,1.13c0,.11,0,.22,0,.33s0,.26,0,.39v.16a1.93,1.93,0,0,0,0,.24V80c0,.14,0,.27,0,.41s0,.29,0,.45v0a2.65,2.65,0,0,1,0,.27c0,.1,0,.21,0,.31l0,.32,0,.35a.35.35,0,0,1,0,.06c0,.14,0,.27.05.41s0,.22,0,.33v0h0a2.19,2.19,0,0,0,0,.27s0,.08,0,.13v0l0,.29v0s0,0,0,0a17.65,17.65,0,0,0,3.44,8.1C8.76,98.29,17.38,101.7,26.39,101.56Z"/><path d="M87.69.07l.24,0a13.7,13.7,0,0,1,5.89,2.28A19.26,19.26,0,0,1,98.4,6.81l.52.72a26,26,0,0,1,2.35,4.16,35.77,35.77,0,0,1,3,13.29,39.64,39.64,0,0,1-.15,5.66,38.63,38.63,0,0,1-1.79,8.53,31.33,31.33,0,0,1-3,6.37,24.16,24.16,0,0,1-1.51,2.23,23.29,23.29,0,0,1-2.54,2.83A14.75,14.75,0,0,1,85,54.88h0l-.15,0,.14,0h0A17.26,17.26,0,0,0,98.6,51.13a24.27,24.27,0,0,0,3.19-2.94c.63-.69,1.23-1.42,1.83-2.2h0v0A33.5,33.5,0,0,0,107.57,39a36.69,36.69,0,0,0,2.59-10,32.19,32.19,0,0,0-2.86-18.19,22.53,22.53,0,0,0-2.09-3.36,18.79,18.79,0,0,0-3.51-3.6,15.43,15.43,0,0,0-6.44-3l-.12,0L94.47.8C93.92.7,93.38.6,92.84.52l-.78-.1-.4,0C90.92.29,90.18.22,89.43.15L89,.13c-.21,0-.42,0-.64,0h-.28l-.57,0L87,0h-.87L87,0Z"/></g></g></g></svg>