<svg xmlns="http://www.w3.org/2000/svg" viewBox="0 0 127.97 128.05"><g id="圖層_2" data-name="圖層 2"><g id="Graphic_Elements" data-name="Graphic Elements"><path d="M100.67,100.71h0l.57.08.45,0h-.09Z"/><path d="M111.42,99.93c-.41.12-.83.22-1.25.31Z"/><path d="M101.64,100c-.38-.11-.76-.23-1.13-.36,0,.22.07.44.1.64a17.07,17.07,0,0,0,2.32.48,17.3,17.3,0,0,0,4.13,0l.44-.06c.86-.11,1.26-.17,1.91-.31l.76-.19a17.8,17.8,0,0,1-8.53-.25Z"/><path d="M111.42,99.93h0l.13,0,0,0Z"/><path d="M100,97.17c.08.37.16.75.23,1.14a18.48,18.48,0,0,0,18.1-1.77h0c.51-.37.78-.57,1.14-.88s.82-.73,1.71-1.55c.25-.25.52-.56.8-.87l0,0A18.82,18.82,0,0,1,100,97.17Z"/><path d="M122.74,92.43c-.22.28-.46.54-.7.8Z"/><path d="M126.14,86.06a19.44,19.44,0,0,1-1.46,2.42,17.87,17.87,0,0,1-1.9,2.22,18.77,18.77,0,0,1-6.26,4.17,20.42,20.42,0,0,1-7.28,1.51,21,21,0,0,1-7.38-1.19A20.44,20.44,0,0,1,99.19,94l0,.06c0,.09.05.18.07.27.13.38.24.76.34,1.13.65.33,1.31.62,2,.88a20.4,20.4,0,0,0,7.34,1.33,19.77,19.77,0,0,0,7.25-1.4,18.32,18.32,0,0,0,7.59-5.64,17.86,17.86,0,0,0,1.14-1.6,18.61,18.61,0,0,0,.94-1.69c.19-.39.37-.79.53-1.2l.21-.55a1.87,1.87,0,0,1,.07-.22c.2-.61.41-1.36.58-1.94v0l0-.06c.08-.36.16-.77.24-1.18-.1.44-.22.88-.35,1.32A18.88,18.88,0,0,1,126.14,86.06Z"/><path d="M127.52,82.17c.09-.38.16-.75.22-1.13l0-.2v.07C127.69,81.29,127.61,81.73,127.52,82.17Z"/><path d="M97.66,89.87c.24.58.5,1.22.72,1.8C110.59,98.15,128.44,91,128,75l0-.25c-.07-.74-.2-1.66-.32-2.48,0-.27-.08-.53-.12-.76,0,.17,0,.35.08.52C129.51,87.33,111.63,97.37,97.66,89.87Z"/><path d="M125.68,72.26a16.68,16.68,0,0,1-1.77,4.25,20.36,20.36,0,0,1-3.1,4,23.05,23.05,0,0,1-6.25,4.44,23.92,23.92,0,0,1-7.16,2.19,21.16,21.16,0,0,1-7.2-.17,17.34,17.34,0,0,1-4.71-1.65c.32.62.66,1.27.92,1.82l.08.18A18.45,18.45,0,0,0,101,89a21.41,21.41,0,0,0,7.29.43,23.34,23.34,0,0,0,7.21-2A21.79,21.79,0,0,0,121.72,83a19.59,19.59,0,0,0,3-3.79,16.69,16.69,0,0,0,1.75-4.08A15,15,0,0,0,127,71a13.84,13.84,0,0,0-.55-3.79c0-.09-.05-.18-.07-.27s-.15-.45-.23-.68c-.21-.6-.45-1.25-.66-1.84a13.1,13.1,0,0,1,.67,3.58A14,14,0,0,1,125.68,72.26Z"/><path d="M123.28,61a12.38,12.38,0,0,1-.38,4.23A16.38,16.38,0,0,1,121,69.64a22,22,0,0,1-3.36,4.27,27,27,0,0,1-6.17,4.61,27.35,27.35,0,0,1-7,2.64,21.71,21.71,0,0,1-6.89.49,15.07,15.07,0,0,1-5-1.32l.44.71.83,1.41a16.31,16.31,0,0,0,4.91,1.49,21.75,21.75,0,0,0,7-.21,25.71,25.71,0,0,0,7.05-2.45,24.93,24.93,0,0,0,6.21-4.53,21.69,21.69,0,0,0,3.26-4.17,17,17,0,0,0,1.82-4.37,13.14,13.14,0,0,0,.39-4.28,11.32,11.32,0,0,0-.82-3.43c-.07-.18-.15-.35-.23-.52-.36-.75-.87-1.71-1.27-2.49l.11.23A10.13,10.13,0,0,1,123.28,61Z"/><path d="M116.87,62.33a26,26,0,0,1-3.55,4.36,32.71,32.71,0,0,1-6.08,4.79,31.73,31.73,0,0,1-6.67,3.14,22.85,22.85,0,0,1-6.45,1.22,13,13,0,0,1-4.94-.74c.52.74,1,1.5,1.52,2.2a13.84,13.84,0,0,0,5,1,22.61,22.61,0,0,0,6.66-.91,30.49,30.49,0,0,0,12.91-7.64,24.48,24.48,0,0,0,3.48-4.33,17.49,17.49,0,0,0,2-4.35,11.18,11.18,0,0,0,.42-4.07A8,8,0,0,0,120,53.51l-1.46-2.32-.08-.12-.14-.22.07.11a6.92,6.92,0,0,1,1,3.16,10.56,10.56,0,0,1-.49,3.92A17.16,17.16,0,0,1,116.87,62.33Z"/><path d="M111.62,54.68A34.48,34.48,0,0,1,107.89,59,44.41,44.41,0,0,1,102,64a41.54,41.54,0,0,1-6.31,3.66,26,26,0,0,1-5.91,2,11,11,0,0,1-4.53,0l.21.26c.46.58,1,1.32,1.53,2a11.62,11.62,0,0,0,4.71.3,24.41,24.41,0,0,0,6.16-1.67,36.46,36.46,0,0,0,6.46-3.44,38.26,38.26,0,0,0,6-4.89,30.84,30.84,0,0,0,3.65-4.37,18.94,18.94,0,0,0,2.17-4.16,9.72,9.72,0,0,0,.64-3.66,5.39,5.39,0,0,0-.75-2.63,2.46,2.46,0,0,0-.17-.27l-.6-.83-.54-.74-.79-1.06a4.24,4.24,0,0,1,.78,2.62,9.47,9.47,0,0,1-.77,3.46A20.83,20.83,0,0,1,111.62,54.68Z"/><path d="M108,43.13a28.55,28.55,0,0,1-2.58,3.73,52.79,52.79,0,0,1-3.88,4.29,72,72,0,0,1-5.79,5.18,64.07,64.07,0,0,1-5.88,4.19,35.65,35.65,0,0,1-5.28,2.79,10.66,10.66,0,0,1-3.9,1l.18.21c.52.6,1.17,1.37,1.75,2.07A10.44,10.44,0,0,0,86.83,66a29.45,29.45,0,0,0,5.55-2.46,50.23,50.23,0,0,0,6.07-4,57.1,57.1,0,0,0,5.86-5.09,43,43,0,0,0,3.81-4.33,24,24,0,0,0,2.45-3.86,9.56,9.56,0,0,0,1-3.16,3.07,3.07,0,0,0-.46-2.1.86.86,0,0,1-.07-.1l-.39-.47-.3-.37-1.47-1.76a2.21,2.21,0,0,1,.32,1.89A9.93,9.93,0,0,1,108,43.13Z"/><path d="M76.8,59.9c.36.4.74.81,1.1,1.19a13,13,0,0,0,3.45-1.51,49.74,49.74,0,0,0,4.87-3.26C88,55,89.91,53.47,91.83,51.81s3.85-3.45,5.69-5.29c1.51-1.51,2.84-2.93,4-4.24a40.78,40.78,0,0,0,2.77-3.52,12.46,12.46,0,0,0,1.46-2.6c.25-.68.26-1.18,0-1.46h0l-.1-.11L104,32.75l-.56-.61,0,0c.12.18,0,.56-.31,1.13a17.15,17.15,0,0,1-1.67,2.36c-.77,1-1.75,2.1-2.91,3.37s-2.52,2.68-4,4.19c-1.84,1.84-3.75,3.66-5.62,5.37s-3.71,3.32-5.4,4.74S80.22,56,78.9,56.92a20.1,20.1,0,0,1-3.09,1.92L76,59l.27.29,0,0Z"/><path d="M72.78,55.71h0c4.36-4.14,25.87-25.5,27.2-27.1h0l-.06-.06-2-2-.37-.35-.06-.06h0c-.11-.08-.44.08-1,.45s-1.29,1-2.22,1.8-2,1.82-3.28,3-2.65,2.54-4.17,4.05C85,37.29,83.15,39.18,81.4,41s-3.4,3.62-4.88,5.26-2.77,3.13-3.8,4.37a30.12,30.12,0,0,0-2.16,2.87,1.8,1.8,0,0,0,.2.19Z"/><path d="M83,24.14A57.12,57.12,0,0,0,78.76,28c-1.85,1.84-3.62,3.79-5.23,5.75a71.09,71.09,0,0,0-4.33,5.77,40,40,0,0,0-3,5.11A11.13,11.13,0,0,0,65,48.41l.21.18c.64.56,1.42,1.27,2.12,1.91A13.76,13.76,0,0,1,69,47.13a57.36,57.36,0,0,1,3.33-4.82c1.34-1.76,2.89-3.65,4.56-5.56s3.47-3.83,5.32-5.67c1.51-1.51,2.93-2.84,4.23-4a43.14,43.14,0,0,1,3.5-2.79,13,13,0,0,1,2.56-1.49c.67-.27,1.15-.3,1.41-.07l-2.15-1.91-.51-.45-.08-.06a2,2,0,0,0-1.64-.13,10.64,10.64,0,0,0-2.8,1.28A31.4,31.4,0,0,0,83,24.14Z"/><path d="M66.68,49.89l0,0L65,48.42h0l1.69,1.49Z"/><path d="M60.2,44.31l1.52,1.25a10.45,10.45,0,0,1,.6-4.17,31.27,31.27,0,0,1,2.49-5.53,51.72,51.72,0,0,1,4-6A57.22,57.22,0,0,1,73.93,24a43,43,0,0,1,4.33-3.81,23.52,23.52,0,0,1,3.85-2.45,9.51,9.51,0,0,1,3.14-1,3,3,0,0,1,2.1.46l.07.05-.18-.14-2.39-1.89-.2-.17-.13-.09a3.92,3.92,0,0,0-2.36-.62,9.25,9.25,0,0,0-3.37.83,21.26,21.26,0,0,0-4,2.32,38,38,0,0,0-4.36,3.74,47.52,47.52,0,0,0-5,5.92,43.1,43.1,0,0,0-3.76,6.22,26.68,26.68,0,0,0-2.14,5.81,10.54,10.54,0,0,0-.21,4.44l.18.15.61.49.18.14Z"/><path d="M70.8,9.7a18.12,18.12,0,0,0-4.21,2.06,26.82,26.82,0,0,0-4.3,3.53,33.54,33.54,0,0,0-4.82,6.05A32.73,32.73,0,0,0,54.26,28a23.27,23.27,0,0,0-1.32,6.4,12.51,12.51,0,0,0,.65,4.89l1.21.88,1.14.85a11.6,11.6,0,0,1-.33-4.75,24,24,0,0,1,1.66-6.17,35.83,35.83,0,0,1,3.43-6.47,39.3,39.3,0,0,1,4.9-6A30.6,30.6,0,0,1,69.94,14a18.9,18.9,0,0,1,4.14-2.15,10.15,10.15,0,0,1,3.66-.66,5.44,5.44,0,0,1,2.92.89l-2.19-1.51-.65-.45L77.57,10a6.81,6.81,0,0,0-2.94-.81A10.88,10.88,0,0,0,70.8,9.7Z"/><path d="M49.39,32.07a22.29,22.29,0,0,1,.87-6.68,30.08,30.08,0,0,1,7.62-12.93,23.55,23.55,0,0,1,4.25-3.4A16.66,16.66,0,0,1,66.4,7.11a11.76,11.76,0,0,1,4-.48,8.4,8.4,0,0,1,3.49,1h0l-.06,0L71.43,6.19l-.16-.1-.07,0a9.9,9.9,0,0,0-3.65-1,12.49,12.49,0,0,0-4.15.44,17.12,17.12,0,0,0-4.31,1.88,22.89,22.89,0,0,0-4.2,3.32A28,28,0,0,0,47.55,23.8,21.87,21.87,0,0,0,47,30.65a14.69,14.69,0,0,0,1.3,5.06l2.14,1.39h0A13.81,13.81,0,0,1,49.39,32.07Z"/><path d="M44.28,33.34l1.07.6A16.41,16.41,0,0,1,43.82,29a21.78,21.78,0,0,1,.18-7,25.52,25.52,0,0,1,2.44-7.06A24.93,24.93,0,0,1,51,8.67,21.3,21.3,0,0,1,55.1,5.45a16.91,16.91,0,0,1,4.33-1.81,13.28,13.28,0,0,1,4.26-.4,11.13,11.13,0,0,1,3.88,1l.07,0-.1,0L65.6,3.31l-.54-.23-.44-.17A12.36,12.36,0,0,0,61,2.16a14.45,14.45,0,0,0-4.3.42,16.82,16.82,0,0,0-4.3,1.78,20.4,20.4,0,0,0-4,3.13,23.63,23.63,0,0,0-4.46,6.23,24.33,24.33,0,0,0-2.26,7.14A21.53,21.53,0,0,0,41.71,28a17.46,17.46,0,0,0,1.64,4.8l.7.38.07,0Z"/><path d="M39,30.7c.45.2.94.42,1.39.64l.09,0-.07,0,.28.13C33.59,18.22,44.65-2.53,61,1.6c-.76-.23-1.75-.49-2.56-.7L58.17.83,57.93.77c-.39-.08-.84-.15-1.2-.2C42.94-1.22,31.16,16.15,39,30.7Z"/><path d="M38.32,5.13a19.35,19.35,0,0,0-4.21,6.26,21,21,0,0,0-.49,14.67,20,20,0,0,0,1.33,3l.56.2,1.12.43C30.11,17.44,37.4-.51,53.44.08h-.08l-.82,0h0c-.86,0-2,0-2.85,0a16.4,16.4,0,0,0-3,.44,17.63,17.63,0,0,0-3,1A18.31,18.31,0,0,0,40.87,3,18,18,0,0,0,38.32,5.13Z"/><path d="M29.55,19.43A19.87,19.87,0,0,0,31,26.73a14.36,14.36,0,0,0,.62,1.39L33,28.5C27.58,18,31.92,5.21,43.47,1.1l.05,0-.08,0c-.95.33-2.17.81-3.09,1.2-.51.24-1.16.61-1.67.88l0,0,0,0c-.31.18-.62.37-.92.58s-.62.43-.93.66-.6.47-.89.73S35.3,5.72,35,6a18.2,18.2,0,0,0-4.12,6.24A19.29,19.29,0,0,0,29.55,19.43Z"/><path d="M29,27.56l1,.19A18.68,18.68,0,0,1,32.4,8.54l-.88,1.14-.13.19c-.34.48-.53.77-.79,1.2s-.51.93-1,1.85v0l0,.06-.19.4a17.72,17.72,0,0,0-1.52,5.45,18.13,18.13,0,0,0,.23,5.64A19.44,19.44,0,0,0,29,27.56Z"/><path d="M27.45,27.35h.05l.42.06a16.14,16.14,0,0,1-.59-3,16.7,16.7,0,0,1,0-3.87c0-.13,0-.26,0-.39l0,.3c-.08.67-.12,1-.15,1.51s0,1,0,1.88c0,.17,0,.35,0,.55,0,.46,0,.91.07,1.34A16,16,0,0,0,27.45,27.35Z"/><path d="M7.27,69.3l0,0c0-.11-.07-.22-.11-.33l0-.05v0c-.05-.12-.09-.24-.13-.36H7v0c0-.11-.08-.22-.11-.33v-.05l0,0c0-.12-.07-.24-.1-.36A15.37,15.37,0,0,1,4.85,66a15.16,15.16,0,0,1-1.54-1.89A14.42,14.42,0,0,1,2.14,62a14.07,14.07,0,0,1-.73-1.86c.25.81.58,1.78.83,2.53l.18.46A14.29,14.29,0,0,0,7.27,69.3Z"/><path d="M9.21,73.65l0,0L9,73.19v0l0,0-.18-.36,0-.06,0,0c-.06-.14-.13-.27-.19-.41v0l0,0a3.78,3.78,0,0,1-.17-.35l0-.06a11.87,11.87,0,0,1-4.37-5l0,0c.37.81.91,1.87,1.3,2.67.12.22.24.45.38.67s.23.36.35.54a9.77,9.77,0,0,0,.92,1.12,9.66,9.66,0,0,0,1.09,1A10.78,10.78,0,0,0,9.21,73.65Z"/><path d="M11.88,78.26l-.12-.19-.09-.14c-.08-.12-.15-.24-.22-.36l-.09-.13v0l0,0L11.08,77l0-.07,0,0-.27-.45v0a12.71,12.71,0,0,1-1.09-.69,10.47,10.47,0,0,1-1-.79A8.15,8.15,0,0,1,7.91,74a6.72,6.72,0,0,1-.5-.69L8.73,75.5l.11.18a.86.86,0,0,0,.07.1,7.27,7.27,0,0,0,.53.71,8.35,8.35,0,0,0,.72.74,9.08,9.08,0,0,0,.85.65,10.38,10.38,0,0,0,1,.56Z"/><path d="M15.14,83.05l0,0-.39-.54,0-.06-.11-.15-.23-.33-.12-.17-.14-.2L14,81.39c-.3-.13-.58-.26-.85-.41a7.74,7.74,0,0,1-.73-.49,6.76,6.76,0,0,1-.62-.57,4.24,4.24,0,0,1-.43-.52.44.44,0,0,1-.08-.11l.09.14,1.75,2.44a4.5,4.5,0,0,0,.46.52,3.53,3.53,0,0,0,.55.46,5.88,5.88,0,0,0,.65.39,6.5,6.5,0,0,0,.75.31l-.27-.37Z"/><path d="M19.13,88.22,19,88.07l-.28-.35-.14-.17-.16-.21-.14-.17L18,86.83l-.13-.16,0-.06a4,4,0,0,1-.64-.19,3.1,3.1,0,0,1-.55-.26,2.51,2.51,0,0,1-.46-.32l-.2-.19-.17-.21.73.92L17.87,88v0h0a2.56,2.56,0,0,0,1.74.82c-.16-.18-.31-.37-.46-.55Z"/><path d="M24.1,94l-.33-.37-.15-.16-.19-.21-.17-.19c-.09-.11-.19-.21-.29-.32l-.14-.17-.06-.06L22.28,92h-.46a2,2,0,0,1-.38-.07,1.26,1.26,0,0,1-.31-.13L21,91.61a.12.12,0,0,0-.05,0l1.72,1.93.54.59a.52.52,0,0,0,.17.12.84.84,0,0,0,.24.06,1.76,1.76,0,0,0,.32,0,3.48,3.48,0,0,0,.38-.07l0-.05Z"/><path d="M29,99.1l-.19-.19-.3-.31-.17-.17-.07-.06-.53-.55,0,0-.11-.12-.39-.39-.29.17-.21.11-.16,0h-.06l0,0,1.17,1.21L28.85,100a.11.11,0,0,0,0,0l.09-.11.15-.17.22-.25-.16-.15Z"/><path d="M34.75,105.56a1.07,1.07,0,0,1-.09-.27,1.83,1.83,0,0,1,0-.34,3.26,3.26,0,0,1,0-.41l-.31-.29-.18-.16-.08-.07-.57-.52,0,0-.11-.1L33,103l-.14-.13-.21-.2-.21-.19a2.79,2.79,0,0,0-.12.34,1,1,0,0,0,0,.27.44.44,0,0,0,0,.2.24.24,0,0,0,.07.12h0l.16.15.38.35h0l1.28,1.17.75.68-.06-.06A.38.38,0,0,1,34.75,105.56Z"/><path d="M40.9,110.84a2.44,2.44,0,0,1-.28-.43,2.71,2.71,0,0,1-.22-.52,4.61,4.61,0,0,1-.15-.59l-.58-.48,0,0-.09-.08-.47-.38-.14-.12-.21-.18-.23-.19-.3-.25-.19-.16-.1-.08a4,4,0,0,0,.06.51,3.88,3.88,0,0,0,.13.44,2.08,2.08,0,0,0,.2.36,1.94,1.94,0,0,0,.23.26l0,0,.29.25.57.47,1.82,1.51L41,111A.86.86,0,0,1,40.9,110.84Z"/><path d="M47.7,116.1l.12.09.09,0-.34-.24Z"/><path d="M46.72,115.13a4.6,4.6,0,0,1-.48-.73,5.39,5.39,0,0,1-.39-.84l-.16-.11-.3-.22-.11-.08-.15-.11-.3-.21-.12-.1-.14-.1-.3-.22-.14-.1-.13-.1-.3-.22-.15-.12a4.68,4.68,0,0,0,.27.72,6.15,6.15,0,0,0,.35.63,4.52,4.52,0,0,0,.43.53,2.85,2.85,0,0,0,.49.43L47.57,116l-.3-.26A5.41,5.41,0,0,1,46.72,115.13Z"/><path d="M53.46,119.9a10.06,10.06,0,0,1-.92-.81A10.05,10.05,0,0,1,51,117l-.15-.1-.28-.16-.09-.06-.14-.09-.28-.17-.1-.06-.13-.09-.28-.18a.41.41,0,0,1-.11-.07.57.57,0,0,1-.13-.08l-.28-.18-.13-.08a10.68,10.68,0,0,0,.57,1,6.67,6.67,0,0,0,.67.87,6.52,6.52,0,0,0,.76.73l.2.16a5.62,5.62,0,0,0,.65.43l1.9,1.19h0Z"/><path d="M57.92,122.14a12.47,12.47,0,0,1-1.2-1.21,13.17,13.17,0,0,1-1.07-1.42l-.14-.07-.25-.12-.06,0-.14-.07-.25-.13-.08,0L54.6,119l-.24-.13-.09,0-.13-.06-.25-.13-.1-.06a12.65,12.65,0,0,0,.91,1.31,11,11,0,0,0,1,1.11,10.08,10.08,0,0,0,1.15.92c.16.11.33.22.51.32a7.43,7.43,0,0,0,.73.4l.21.11,1.49.75-.59-.35A10.33,10.33,0,0,1,57.92,122.14Z"/><path d="M60.18,123.66l.45.22,0,0-.83-.42Z"/><path d="M67.09,126.46l-.92-.32C66.47,126.26,66.78,126.36,67.09,126.46Z"/><path d="M63.07,124.48a14,14,0,0,1-1.79-1.5,16,16,0,0,1-1.61-1.84l-.13,0-.21-.07,0,0-.12,0-.22-.07,0,0-.13,0-.21-.08-.07,0-.11,0-.22-.08-.08,0a16.43,16.43,0,0,0,1.32,1.61,12.45,12.45,0,0,0,1.48,1.35,12.91,12.91,0,0,0,1.6,1.09,14.41,14.41,0,0,0,1.48.72l.24.09.88.33,1.1.38c-.39-.15-.77-.31-1.15-.5A14.94,14.94,0,0,1,63.07,124.48Z"/><path d="M68.34,126.19a17.55,17.55,0,0,1-2.82-1.85A17.86,17.86,0,0,1,63,121.86h-.11l-.17,0h-.14l-.17,0h0l-.11,0-.17,0H62l-.1,0-.18,0H61.7a16.88,16.88,0,0,0,2,2.16A16.67,16.67,0,0,0,66,125.52a15.62,15.62,0,0,0,5.08,2c.59.11,1.31.21,2,.31a17.75,17.75,0,0,1-1.75-.41A16.37,16.37,0,0,1,68.34,126.19Z"/><path d="M73.12,127.81c.32,0,.64.1,1,.13l.45,0h-.09Z"/><path d="M84.27,127.08c-.41.12-.83.22-1.25.31Z"/><path d="M74.49,127.14a18.43,18.43,0,0,1-4.73-2,19,19,0,0,1-4.19-3.43l-.08,0-.13,0h0l-.08,0-.14,0h0l-.08,0-.14,0h-.11l-.14,0h0a18.82,18.82,0,0,0,3.36,3,17.87,17.87,0,0,0,3.78,2,17.48,17.48,0,0,0,4.05,1,17.75,17.75,0,0,0,4.12,0l.44-.06c.86-.11,1.26-.17,1.91-.31l.76-.19a17.8,17.8,0,0,1-8.53-.25Z"/><path d="M84.27,127.08h0l.14,0-.06,0Z"/><path d="M67.3,120.53a.11.11,0,0,0,0,0l0,0,0,.06,0,0v0l-.1.1a.6.6,0,0,0-.08.08l-.06,0h0l-.09.08,0,0h0l0,0c4.15,4.22,14,9.51,24.54,2.58h0a11.89,11.89,0,0,0,1.14-.87c.37-.31.82-.73,1.71-1.55.25-.26.52-.56.8-.87l0,.05C88.46,127.22,76.75,129.1,67.3,120.53Z"/><path d="M95.59,119.58c-.22.28-.46.54-.7.8Z"/><path d="M99,113.21a17.57,17.57,0,0,1-1.46,2.41,17.26,17.26,0,0,1-1.9,2.23A18.77,18.77,0,0,1,89.37,122a20.42,20.42,0,0,1-7.28,1.51,21,21,0,0,1-7.38-1.19,20.25,20.25,0,0,1-6.61-3.9v0l0,.21v0h0a1.7,1.7,0,0,1,0,.22V119l-.05.17v.06l-.06.2h0a20.35,20.35,0,0,0,13.91,5.4,19.77,19.77,0,0,0,7.25-1.4,18.59,18.59,0,0,0,6.25-4.14,17.12,17.12,0,0,0,1.34-1.5,17.86,17.86,0,0,0,1.14-1.6,18.61,18.61,0,0,0,.94-1.69c.19-.39.37-.79.53-1.2l.21-.55.07-.22c.2-.61.41-1.36.58-1.94v0l0-.06c.08-.36.16-.77.24-1.18-.1.44-.22.88-.35,1.32A18.88,18.88,0,0,1,99,113.21Z"/><path d="M100.37,109.32c.09-.38.16-.75.22-1.13l0-.2v.07C100.54,108.44,100.46,108.88,100.37,109.32Z"/><path d="M100.47,99.38c0-.27-.08-.53-.12-.76,0,.17.05.35.08.52,2,16.3-18.28,26.63-32.52,16.25v0l.06.33h0v0a2.51,2.51,0,0,1,0,.27v.09l0,.24v.07l0,.3h0c12,9.74,33.22,2.74,32.69-14.67l0-.25C100.72,101.12,100.59,100.2,100.47,99.38Z"/><path d="M99.19,94,99,93.39c-.21-.6-.45-1.25-.66-1.84A13.1,13.1,0,0,1,99,95.13a14,14,0,0,1-.46,4.28,16.83,16.83,0,0,1-1.77,4.25,20.36,20.36,0,0,1-3.1,4,23.05,23.05,0,0,1-6.25,4.44,23.92,23.92,0,0,1-7.16,2.19,21.16,21.16,0,0,1-7.2-.17,17,17,0,0,1-6.37-2.65v0c.06.13.11.26.16.38v0l0,.06.12.32,0,.06v0c0,.13.09.25.13.37l0,0v.06c0,.1.08.21.11.31l0,.05a17.77,17.77,0,0,0,6.48,3,21.41,21.41,0,0,0,7.29.43,23.26,23.26,0,0,0,7.21-2,21.79,21.79,0,0,0,6.27-4.37,19.21,19.21,0,0,0,3-3.79,16.69,16.69,0,0,0,1.75-4.08,15,15,0,0,0,.56-4.17,13.78,13.78,0,0,0-.55-3.79c0-.09,0-.18-.07-.27Z"/><path d="M95.49,85.31l-.35-.67.11.23a9.89,9.89,0,0,1,.88,3.3,12.38,12.38,0,0,1-.38,4.23,16.38,16.38,0,0,1-1.87,4.39,22,22,0,0,1-3.36,4.27,27,27,0,0,1-6.17,4.61,27.35,27.35,0,0,1-7,2.64,21.71,21.71,0,0,1-6.89.49,14.7,14.7,0,0,1-6-1.84l0,.06.2.38,0,0v0c.08.14.16.28.23.42l0,0,0,.06.19.37,0,0v0l.21.42,0,0a15.5,15.5,0,0,0,6.16,2.19,21.75,21.75,0,0,0,7-.21,25.71,25.71,0,0,0,7-2.45A24.93,24.93,0,0,0,92,103.9a21.69,21.69,0,0,0,3.26-4.17,16.64,16.64,0,0,0,1.82-4.37,13.17,13.17,0,0,0,.39-4.29,11.33,11.33,0,0,0-.82-3.42,3.49,3.49,0,0,0-.15-.34l-.08-.18C96.15,86.58,95.81,85.93,95.49,85.31Z"/><path d="M61.82,102.49l0,.07.34.53,0,0,.08.11.24.38a1,1,0,0,0,.08.14l.12.19.12.19a13.21,13.21,0,0,0,5.69,1.34,22.61,22.61,0,0,0,6.66-.91,30.49,30.49,0,0,0,12.91-7.64,24.17,24.17,0,0,0,3.48-4.34,17.27,17.27,0,0,0,2-4.34A11.18,11.18,0,0,0,94,84.17a8,8,0,0,0-1.12-3.51L91.4,78.34l-.08-.12L91.18,78l.07.11a6.92,6.92,0,0,1,1,3.16,10.56,10.56,0,0,1-.49,3.92,17.16,17.16,0,0,1-2,4.29,26,26,0,0,1-3.55,4.36,33.13,33.13,0,0,1-6.08,4.79,31.89,31.89,0,0,1-6.66,3.14A23,23,0,0,1,67,103a12.36,12.36,0,0,1-5.46-1c.07.1.13.2.2.29A1,1,0,0,0,61.82,102.49Z"/><path d="M58.23,97.39a.44.44,0,0,1,.08.11l.31.41.1.14.16.21.15.2.2.28.14.19.06.08a11.21,11.21,0,0,0,5.07.42,24.41,24.41,0,0,0,6.16-1.67,36.46,36.46,0,0,0,6.46-3.44,37.77,37.77,0,0,0,6-4.9,30.24,30.24,0,0,0,3.65-4.36A18.94,18.94,0,0,0,89,80.9a9.72,9.72,0,0,0,.64-3.66,5.46,5.46,0,0,0-.75-2.64c0-.09-.11-.17-.17-.26l-.6-.83-.54-.74-.79-1.06a4.24,4.24,0,0,1,.78,2.62,9.47,9.47,0,0,1-.77,3.46,21.12,21.12,0,0,1-2.28,4,34.48,34.48,0,0,1-3.73,4.36,44.41,44.41,0,0,1-5.94,5,41.06,41.06,0,0,1-6.31,3.66,26,26,0,0,1-5.91,2,10.68,10.68,0,0,1-4.79,0l.42.55Z"/><path d="M80.87,70.28A28.55,28.55,0,0,1,78.29,74a52.79,52.79,0,0,1-3.88,4.29,72,72,0,0,1-5.79,5.18,64.07,64.07,0,0,1-5.88,4.19,35.65,35.65,0,0,1-5.28,2.79,10.44,10.44,0,0,1-4,1l0,0,.08.1c.12.15.25.3.38.44l.11.14.17.21.19.22.23.28c0,.06.1.13.16.19l.07.09.47.57a10.33,10.33,0,0,0,4.34-.55,29.45,29.45,0,0,0,5.55-2.46,50.23,50.23,0,0,0,6.07-4,57.1,57.1,0,0,0,5.86-5.09A43,43,0,0,0,81,77.28a23.62,23.62,0,0,0,2.45-3.87,9.44,9.44,0,0,0,1-3.15,3.07,3.07,0,0,0-.46-2.1.86.86,0,0,1-.07-.1l-.39-.47-.3-.37-1.47-1.76a2.21,2.21,0,0,1,.32,1.89A9.93,9.93,0,0,1,80.87,70.28Z"/><path d="M49.14,86.57l.25.26.18.2.1.1.51.56h0l0,0,.46.51a12.91,12.91,0,0,0,3.51-1.53,49.74,49.74,0,0,0,4.87-3.26c1.78-1.32,3.69-2.85,5.61-4.51s3.85-3.45,5.69-5.29c1.51-1.51,2.84-2.93,4-4.24a40.78,40.78,0,0,0,2.77-3.52,12.46,12.46,0,0,0,1.46-2.6c.25-.69.26-1.18,0-1.46h0l-.11-.11L76.8,59.9l-.56-.61,0,0h0c.12.18,0,.56-.31,1.13a17.78,17.78,0,0,1-1.67,2.36c-.77,1-1.75,2.1-2.91,3.37l-.83.89c-1,1-2,2.13-3.2,3.3-.64.64-1.29,1.28-2,1.91-1.22,1.18-2.45,2.35-3.67,3.46l-1.21,1.1-.19.17-1.61,1.42c-.82.72-1.62,1.4-2.39,2l-.77.63-1.16.94c-1,.76-1.84,1.44-2.64,2-.56.4-1.07.75-1.54,1.05a11.37,11.37,0,0,1-1.59.88l.12.13.19.21Z"/><path d="M43.84,81.14l.11.1.56.55v0l.33.32.21.21.11.11.2.2.24.24c4.32-4.09,25.9-25.52,27.23-27.12h0l0-.05h0l-2-2a1.8,1.8,0,0,1-.2-.19l-.17-.16-.06-.06h0c-.11-.08-.44.08-1,.45s-1.29,1-2.22,1.8-2,1.82-3.28,3-2.65,2.54-4.17,4.05c-1.84,1.84-3.68,3.73-5.43,5.57s-3.4,3.62-4.88,5.26-2.77,3.13-3.8,4.37a30.18,30.18,0,0,0-2.18,2.9c.08.08.17.16.25.25Z"/><path d="M45.14,69.46C46.48,67.7,48,65.81,49.7,63.9l1.16-1.3c1-1.14,2.11-2.28,3.2-3.4l1-1c1.51-1.51,2.93-2.84,4.23-4,.53-.47,1-.89,1.53-1.29.7-.57,1.37-1.08,2-1.5.34-.24.65-.44,1-.63A10,10,0,0,1,65.31,50a2,2,0,0,1,1.16-.19h0a.63.63,0,0,1,.2.1l0,0L65,48.42,64.57,48l-.51-.45L64,47.49a2,2,0,0,0-1.64-.13,10.64,10.64,0,0,0-2.8,1.28,31.4,31.4,0,0,0-3.65,2.65,57.12,57.12,0,0,0-4.28,3.9C49.76,57,48,59,46.38,60.94a71.09,71.09,0,0,0-4.33,5.77,38.71,38.71,0,0,0-3,5.11,11.05,11.05,0,0,0-1.19,3.81l.55.49,0,0h0l.56.5.11.1.21.19.27.24.24.21.21.2.12.11a9.54,9.54,0,0,1,.38-1.08,20.27,20.27,0,0,1,1.23-2.36l.23-.35C42.6,73,43.26,72,44,71,44.38,70.48,44.75,70,45.14,69.46Z"/><path d="M46.78,51.12a43,43,0,0,1,4.33-3.81A23.52,23.52,0,0,1,55,44.86a9.51,9.51,0,0,1,3.14-1,3,3,0,0,1,2.1.46l.07,0-.18-.14L57.7,42.33l-.2-.17-.13-.09A3.92,3.92,0,0,0,55,41.45a9.25,9.25,0,0,0-3.37.83,21.26,21.26,0,0,0-4,2.32,37,37,0,0,0-4.36,3.74,47.52,47.52,0,0,0-5,5.92,43.1,43.1,0,0,0-3.76,6.22,26.68,26.68,0,0,0-2.14,5.81,10.35,10.35,0,0,0-.17,4.65l.6.47.11.09.21.16.28.23.24.19.22.18.13.1.49.4.09.07,0,0a10.27,10.27,0,0,1,.59-4.31A30.35,30.35,0,0,1,37.67,63a50.35,50.35,0,0,1,4-6A57.22,57.22,0,0,1,46.78,51.12Z"/><path d="M38.45,44.74a31.16,31.16,0,0,1,4.34-3.62A18.9,18.9,0,0,1,46.93,39a10.15,10.15,0,0,1,3.66-.66,5.44,5.44,0,0,1,2.92.89l-2.19-1.51-.65-.45-.22-.13h0a6.81,6.81,0,0,0-2.94-.81,10.91,10.91,0,0,0-3.83.56,18.12,18.12,0,0,0-4.21,2.06,26.82,26.82,0,0,0-4.3,3.53,33.54,33.54,0,0,0-4.82,6.05,32.48,32.48,0,0,0-3.21,6.62,23.27,23.27,0,0,0-1.32,6.4,12.13,12.13,0,0,0,.84,5.38l.17.12.3.2.09.06.16.11.3.21.1.07.15.11.3.21.12.08.14.1.3.22.14.09a11.13,11.13,0,0,1-.44-5.09,24,24,0,0,1,1.66-6.17,35.83,35.83,0,0,1,3.43-6.47A39.3,39.3,0,0,1,38.45,44.74Z"/><path d="M21.75,63.84,22,64l0,0,.17.1.27.16.07,0,.16.09.27.17.08,0,.15.09.28.17.09.06a13.41,13.41,0,0,1-1.38-5.73,22.29,22.29,0,0,1,.87-6.68,30.08,30.08,0,0,1,7.62-12.93A24.07,24.07,0,0,1,35,36.2a17,17,0,0,1,4.27-1.94,11.76,11.76,0,0,1,4-.48,8.4,8.4,0,0,1,3.49,1h0l-.06,0-2.47-1.42-.16-.1-.07,0a9.9,9.9,0,0,0-3.65-1,12.49,12.49,0,0,0-4.15.44,17.12,17.12,0,0,0-4.31,1.88,22.89,22.89,0,0,0-4.2,3.32A27,27,0,0,0,23.11,44,27.38,27.38,0,0,0,20.4,51a21.87,21.87,0,0,0-.57,6.85,14.3,14.3,0,0,0,1.75,5.94Z"/><path d="M40.4,31.34l-1.95-.88-.53-.23-.45-.17a12.36,12.36,0,0,0-3.62-.75,14.45,14.45,0,0,0-4.3.42,16.82,16.82,0,0,0-4.3,1.78,20.4,20.4,0,0,0-4.05,3.13,23.63,23.63,0,0,0-4.46,6.23A24.33,24.33,0,0,0,14.48,48a21.27,21.27,0,0,0,.09,7.17,16.64,16.64,0,0,0,2.55,6.34l.1,0,.32.14h0l.15.06.27.12,0,0,.15.07.25.12h.05l.15.08.25.12,0,0a15.84,15.84,0,0,1-2.23-6.19,21.78,21.78,0,0,1,.18-7A25.52,25.52,0,0,1,19.29,42a24.93,24.93,0,0,1,4.53-6.21A20.92,20.92,0,0,1,28,32.6a16.91,16.91,0,0,1,4.33-1.81,13.58,13.58,0,0,1,4.26-.41,11.36,11.36,0,0,1,3.88,1l.07,0Z"/><path d="M33.85,28.75c-.76-.23-1.75-.49-2.56-.7L31,28l-.24-.06c-.39-.08-.84-.15-1.2-.2C15,25.83,2.71,45.26,13.32,60.21h0l.25.06.1,0h0l.36.1h0l.33.1h0l.12,0,.25.08h0c-.21-.3-.5-.71-.7-1C5.89,46.43,17.09,24.52,33.85,28.75Z"/><path d="M11.17,32.28A19.35,19.35,0,0,0,7,38.54a20.75,20.75,0,0,0-1.57,7.28,21.14,21.14,0,0,0,1.08,7.39,19.9,19.9,0,0,0,3.78,6.63h.89l.26,0h0c-9.67-12.1-2.55-33.3,14.85-32.65h-.08l-.82,0h-.05c-.86,0-2,0-2.84,0h0a16.4,16.4,0,0,0-3,.44,17.63,17.63,0,0,0-2.95,1,18.31,18.31,0,0,0-2.79,1.56A18,18,0,0,0,11.17,32.28Z"/><path d="M2.4,46.58a19.87,19.87,0,0,0,1.42,7.3A20.19,20.19,0,0,0,8,60.39H8l.1-.06.06,0h0l.11-.05.06,0h0l.12,0,.07,0h0l.13,0,.07,0C-.68,49,3.1,33,16.32,28.25l.05,0-.08,0c-.95.33-2.17.81-3.09,1.2-.51.24-1.16.61-1.67.88l0,0,0,0c-.31.18-.62.37-.92.58s-.62.43-.93.66-.6.47-.89.73-.57.52-.85.79a18.2,18.2,0,0,0-4.12,6.24A19.26,19.26,0,0,0,2.4,46.58Z"/><path d="M2.9,57.08a19.88,19.88,0,0,0,3.71,4.81v0s0-.1.08-.14v0l0,0,.07-.13,0,0h0l.11-.16h0l0,0,.1-.13,0,0C0,53.71-.73,43.76,5.19,35.77l.06-.08-.14.18-.63.83-.11.13c0,.07-.09.13-.13.19-.34.48-.53.77-.79,1.2s-.51.93-1,1.85v0l0,.06-.19.4A17.74,17.74,0,0,0,.69,46a18.18,18.18,0,0,0,.23,5.65A18.89,18.89,0,0,0,2.9,57.08Z"/><path d="M6.17,64.33V64c0-.09,0-.17,0-.26h0v0c0-.07,0-.14,0-.2v-.08a1.1,1.1,0,0,1,0-.18v-.05A19.19,19.19,0,0,1,3.18,59.7a18.07,18.07,0,0,1-2-3.93,17.67,17.67,0,0,1-1-4.2,17.27,17.27,0,0,1,0-3.87c0-.13,0-.26,0-.39l0,.3c-.08.67-.12,1-.15,1.51s0,1,0,1.88v.55c0,.46,0,.91.07,1.34C.63,59.16,4.76,63,6.17,64.33Z"/><path d="M.51,56.42v0c.06.36.14.72.23,1.08l.06.22c-.11-.47-.22-.93-.3-1.34Z"/><path d="M3.31,64.09A15.16,15.16,0,0,0,4.85,66a15.37,15.37,0,0,0,1.89,1.69,3.57,3.57,0,0,1-.1-.35v0l0-.07L6.55,67v-.11a1.38,1.38,0,0,1-.06-.26l0-.06v0c0-.11,0-.21-.07-.32v0a17.82,17.82,0,0,1-2.21-2.12,16.71,16.71,0,0,1-1.71-2.37,15.45,15.45,0,0,1-1.22-2.57,12.47,12.47,0,0,1-.43-1.35c.17.73.35,1.48.51,2.1l.06.2,0,.11A14.07,14.07,0,0,0,2.14,62,14.42,14.42,0,0,0,3.31,64.09Z"/></g></g></svg>