<svg xmlns="http://www.w3.org/2000/svg" viewBox="0 0 137.96 106.1"><defs><style>.cls-1{fill:#fff;}</style></defs><g id="圖層_2" data-name="圖層 2"><g id="Graphic_Elements" data-name="Graphic Elements"><path class="cls-1" d="M135.88,98.32c.22-.87.43-1.75.62-2.63-43-11.56-85.38-6.9-94.73,10.41C51.12,88.79,93.25,85.31,135.88,98.32Z"/><path class="cls-1" d="M137.18,92c.13-.89.25-1.79.35-2.69-43.54-8-86.41-.49-95.76,16.82C51.12,88.79,93.83,82.47,137.18,92Z"/><path class="cls-1" d="M137.86,85.51c0-.91.08-1.81.1-2.72-43.78-4.44-86.84,6-96.19,23.31C51.12,88.79,94.14,79.57,137.86,85.51Z"/><path class="cls-1" d="M137.93,79c0-.92-.08-1.83-.15-2.74-43.68-.82-86.66,12.55-96,29.86C51.12,88.79,94.17,76.65,137.93,79Z"/><path class="cls-1" d="M137.39,72.41c-.11-.91-.25-1.82-.4-2.73-43.24,2.8-85.87,19.11-95.22,36.42C51.12,88.79,93.93,73.71,137.39,72.41Z"/><path class="cls-1" d="M136.25,65.86c-.2-.9-.42-1.81-.65-2.72-42.48,6.42-84.48,25.65-93.83,43C51.12,88.79,93.42,70.78,136.25,65.86Z"/><path class="cls-1" d="M134.51,59.37c-.28-.9-.58-1.8-.9-2.69-41.38,10-82.49,32.11-91.84,49.42C51.12,88.79,92.64,67.87,134.51,59.37Z"/><path class="cls-1" d="M132.17,53c-.37-.88-.75-1.76-1.15-2.63-40,13.49-79.9,38.46-89.25,55.77C51.12,88.79,91.59,65,132.17,53Z"/><path class="cls-1" d="M129.23,46.69c-.45-.86-.91-1.72-1.4-2.57C89.65,61,51.12,88.79,41.77,106.1,51.12,88.79,90.28,62.19,129.23,46.69Z"/><path class="cls-1" d="M125.71,40.59c-.54-.83-1.09-1.66-1.65-2.48C88,58.35,51.12,88.79,41.77,106.1,51.12,88.79,88.7,59.46,125.71,40.59Z"/><path class="cls-1" d="M121.58,34.71c-.61-.8-1.24-1.59-1.89-2.38C86,55.76,51.12,88.79,41.77,106.1,51.12,88.79,86.85,56.83,121.58,34.71Z"/><path class="cls-1" d="M116.88,29.09c-.7-.77-1.41-1.52-2.14-2.27-31,26.48-63.62,62-73,79.28C51.12,88.79,84.74,54.31,116.88,29.09Z"/><path class="cls-1" d="M111.58,23.75l-.43-.39c-.64-.58-1.28-1.16-1.94-1.72C81.31,51,51.12,88.79,41.77,106.1,51.12,88.79,82.37,51.92,111.58,23.75Z"/><path class="cls-1" d="M103.31,17C78.67,48.89,51.12,88.79,41.77,106.1c9.35-17.31,38-56.37,64-87.25C105,18.21,104.16,17.58,103.31,17Z"/><path class="cls-1" d="M97.13,12.87c-21.23,34.18-46,75.92-55.36,93.23,9.35-17.31,35.3-58.31,58-91.59C98.88,14,98,13.4,97.13,12.87Z"/><path class="cls-1" d="M90.72,9.33C73,45.47,51.12,88.79,41.77,106.1c9.35-17.31,32.47-60,51.65-95.37C92.53,10.25,91.62,9.78,90.72,9.33Z"/><path class="cls-1" d="M84.11,6.35c-14,37.78-33,82.44-42.34,99.75C51.12,88.79,71.32,44.66,86.89,7.53,86,7.12,85,6.73,84.11,6.35Z"/><path class="cls-1" d="M77.34,4C67,43.06,51.12,88.79,41.77,106.1,51.12,88.79,68.31,43.48,80.18,4.88,79.24,4.55,78.29,4.24,77.34,4Z"/><path class="cls-1" d="M70.47,2.11c-6.5,40.12-19.35,86.68-28.7,104C51.12,88.79,65.25,42.55,73.35,2.81,72.39,2.56,71.43,2.33,70.47,2.11Z"/><path class="cls-1" d="M63.53.84c-2.67,40.83-12.41,88-21.76,105.26C51.12,88.79,62.16,41.87,66.43,1.3,65.46,1.13,64.5,1,63.53.84Z"/><path class="cls-1" d="M56.57.15c1.17,41.21-5.45,88.64-14.8,106C51.12,88.79,59,41.45,59.47.37,58.5.28,57.54.2,56.57.15Z"/><path class="cls-1" d="M52.52,0c-1,0-1.93,0-2.89,0,5,41.28,1.49,88.77-7.86,106.08C51.12,88.79,55.93,41.29,52.52,0Z"/><path class="cls-1" d="M45.61.21c-1,.07-1.91.16-2.86.26,8.81,41,8.37,88.32-1,105.63C51.12,88.79,52.84,41.39,45.61.21Z"/><path class="cls-1" d="M38.79,1c-.94.15-1.88.31-2.81.49C48.52,42,51.12,88.79,41.77,106.1,51.12,88.79,49.78,41.74,38.79,1Z"/><path class="cls-1" d="M32.1,2.36c-.92.22-1.83.47-2.74.73,16.2,39.58,21.76,85.7,12.41,103C51.12,88.79,46.79,42.34,32.1,2.36Z"/><path class="cls-1" d="M25.58,4.29c-.89.31-1.77.64-2.65,1C42.68,43.65,51.12,88.79,41.77,106.1,51.12,88.79,43.87,43.21,25.58,4.29Z"/><path class="cls-1" d="M19.29,6.8c-.86.39-1.71.8-2.55,1.22,23.17,36.86,34.38,80.77,25,98.08C51.12,88.79,41.05,44.33,19.29,6.8Z"/><path class="cls-1" d="M13.25,9.89c-.82.47-1.63,1-2.43,1.46,26.44,35,40.3,77.44,31,94.75C51.12,88.79,38.35,45.72,13.25,9.89Z"/><path class="cls-1" d="M7.52,13.56c-.77.55-1.54,1.12-2.29,1.7C34.76,48.12,51.12,88.79,41.77,106.1,51.12,88.79,35.78,47.36,7.52,13.56Z"/><path class="cls-1" d="M2.13,17.81C1.41,18.44.7,19.09,0,19.75c32.42,30.38,51.12,69,41.77,86.35C51.12,88.79,33.37,49.26,2.13,17.81Z"/></g></g></svg>