<svg xmlns="http://www.w3.org/2000/svg" viewBox="0 0 109.59 120.29"><defs><style>.cls-1{opacity:0.9;}.cls-2{fill:#fff;}</style></defs><g id="圖層_2" data-name="圖層 2"><g id="Graphic_Elements" data-name="Graphic Elements"><g class="cls-1"><path class="cls-2" d="M98.78,35.77A16.85,16.85,0,0,1,100,37.66c5.86-6.09,7.39-12.85,4.32-19-.71-1.22-1.75-2.8-2.55-4C106,20.34,105,29.07,98.78,35.77Z"/><path class="cls-2" d="M101.32,40.6a20.79,20.79,0,0,1,.69,2.28c5.26-4.08,7.39-9.52,6.22-14.25l0-.08c-.34-1.27-.88-2.95-1.29-4.2C108.82,29.49,106.89,35.8,101.32,40.6Z"/><path class="cls-2" d="M102.62,46.31c.1.85.16,1.72.19,2.61,4.61-2.71,6.91-6.49,6.78-10.22l-.08-1.57-.23-2.65C109.78,38.63,107.51,43.06,102.62,46.31Z"/><path class="cls-2" d="M102.73,52.73c-.06.94-.16,1.89-.29,2.85,4-1.62,6.23-4.14,6.6-6.91l.35-3.06.08-1.07C109.26,47.69,107,50.69,102.73,52.73Z"/><path class="cls-2" d="M101.69,59.67c-.22,1-.48,2-.77,3,3.47-.72,5.5-2.25,6-4.19.34-1.2.73-2.84,1-4C107.49,56.69,105.37,58.59,101.69,59.67Z"/><path class="cls-2" d="M99.53,66.93c-.37,1-.78,2.06-1.22,3.09,3,0,4.72-.68,5.23-1.9s1.11-2.8,1.58-4C104.58,65.63,102.71,66.66,99.53,66.93Z"/><path class="cls-2" d="M96.3,74.34c-.52,1-1.07,2.06-1.65,3.08,2.5.72,3.9.7,4.25.09L101,73.62C100.56,74.48,99,74.78,96.3,74.34Z"/><path class="cls-2" d="M90,84.71a16.74,16.74,0,0,0,3.09,1.89l.46-.64,2.12-3.11c-.18.29-1.37-.06-3.6-1.16C91.38,82.71,90.69,83.71,90,84.71Z"/><path class="cls-2" d="M84.33,91.66c1.54,2,2.07,3.21,1.71,3.59l1.66-1.88,1.41-1.66c.08-.33-.5-1.06-2.32-2.89-.37.45-.75.89-1.13,1.34S84.78,91.17,84.33,91.66Z"/><path class="cls-2" d="M78.27,102.9l3-2.73.33-.31c.64-.62.43-2.14-.81-4.53-.86.83-1.73,1.63-2.6,2.4C79.18,100.4,79.15,102.14,78.27,102.9Z"/><path class="cls-2" d="M71.79,102.66c.43,3.36-.27,5.62-1.8,6.64,1.07-.73,2.46-1.77,3.52-2.52,1.23-.93,1.64-3,1-6C73.58,101.41,72.68,102.05,71.79,102.66Z"/><path class="cls-2" d="M65.36,106.41c-.24,4.11-1.79,6.85-4.13,8,1.13-.56,2.6-1.37,3.71-2,2-1.12,3.15-3.66,3.1-7.45C67.15,105.5,66.25,106,65.36,106.41Z"/><path class="cls-2" d="M59.05,108.94c-1.07,5-3.72,8.13-7,9.14,1.18-.36,2.72-.93,3.89-1.34,4.46-1.8,5.38-6.64,5.77-8.7Q60.34,108.54,59.05,108.94Z"/><path class="cls-2" d="M55.49,109.82c-.83.16-1.66.28-2.47.36-2.13,5.94-6.3,9.46-10.85,9.9l1.39-.16,2.76-.44C50.35,118.74,53.83,115.34,55.49,109.82Z"/><path class="cls-2" d="M49.69,110.3a21,21,0,0,1-2.27-.21c-3.5,7-9.73,10.67-15.6,9.79.91.14,2.14.23,3.06.33l1.32.07C41.52,120.48,46.81,116.86,49.69,110.3Z"/><path class="cls-2" d="M44.43,109.41a17.26,17.26,0,0,1-2-.78c-5.67,8.21-13.54,11.25-21,8.14,1.29.57,3,1.24,4.37,1.72C29.06,119.43,37.52,120.43,44.43,109.41Z"/><path class="cls-2" d="M39.87,107.12l-.21-.15a15.22,15.22,0,0,1-1.45-1.23c-6.45,7.82-18,11.67-26.25,4.57.95.87,2.28,2,3.27,2.77l.46.34C22.73,118.52,33.51,115.73,39.87,107.12Z"/><path class="cls-2" d="M36.18,103.4A19.68,19.68,0,0,1,35,101.49c-7.54,7.37-19.36,9.07-26.39,3.8a12.57,12.57,0,0,1-3.53-4c.71,1.23,1.73,2.81,2.5,4A12.92,12.92,0,0,0,10.29,108C17.33,113.27,28.92,111.21,36.18,103.4Z"/><path class="cls-2" d="M33.69,98.53a23.57,23.57,0,0,1-.67-2.3c-8,6.15-20.18,6.87-27.22,1.6a11.6,11.6,0,0,1-4.52-6.58l.11.46c.3,1.15.79,2.67,1.14,3.81a12.06,12.06,0,0,0,4.22,5.58C13.79,106.37,25.85,105.22,33.69,98.53Z"/><path class="cls-2" d="M5,92.94c7,5.27,19.33,5.2,27.46-.16-.09-.85-.14-1.72-.16-2.61-8.18,4.75-20.5,4.33-27.54-.94C1.64,86.92.08,84.06,0,81.17l.09,2,.19,2.25A11,11,0,0,0,5,92.94Z"/><path class="cls-2" d="M32.69,83.49C24.61,86.69,12.37,85,5.33,79.75,1.77,77.08.22,74,.61,71.21l-.4,3.44,0,.67c-.22,2.9,1.33,5.94,4.72,8.47,7,5.27,19.34,6.41,27.49,2.55C32.44,85.4,32.55,84.45,32.69,83.49Z"/><path class="cls-2" d="M7.54,69.66c-3.89-2.91-5.46-5.91-4.79-8.26C2.4,62.61,2,64.24,1.69,65.46.2,74.2,19.79,82.79,33.46,79.39c.23-1,.49-2,.79-3C26.53,77.93,14.58,74.92,7.54,69.66Z"/><path class="cls-2" d="M11.3,59.22c-4.1-3.07-5.8-5.77-5.08-7.45-.51,1.19-1.12,2.8-1.6,4-.73,2,.9,4.83,4.93,7.84,7,5.27,18.73,9.08,26.11,8.51.38-1,.79-2,1.24-3.08C29.8,68.88,18.34,64.49,11.3,59.22Z"/><path class="cls-2" d="M38.93,64.71c.53-1,1.09-2.06,1.67-3.09-6.24-1.86-17-7.64-24-12.91-4.24-3.17-6.16-5.43-5.65-6.32L8.8,46.27C8.18,47.5,10,50,14.19,53.09,21.23,58.36,32.3,63.56,38.93,64.71Z"/><path class="cls-2" d="M43.23,57.36c.67-1,1.37-2,2.09-3-5.15-3.55-15-10.69-22.06-16a75.57,75.57,0,0,1-6.47-5.07l-.71,1-1.89,2.76c-.27.42,1.83,2.4,6.1,5.6A193.13,193.13,0,0,0,43.23,57.36Z"/><path class="cls-2" d="M48.52,50.25c.3-.36.6-.72.91-1.07.51-.6,1-1.19,1.56-1.76-3.83-5.16-12.65-13.6-19.68-18.87-4.26-3.18-6.89-4.48-7.46-3.86l-2,2.2-1.12,1.33c.29-.34,2.75,1.15,7,4.35A219.7,219.7,0,0,1,48.52,50.25Z"/><path class="cls-2" d="M54.55,43.77c.87-.82,1.74-1.61,2.62-2.37C54.76,34.85,47.11,25.27,40.07,20c-4.14-3.09-7.14-4-8.43-2.91l-3.29,3,0,0c1-.93,3.84.12,8,3.27C43.4,28.65,51.55,37.78,54.55,43.77Z"/><path class="cls-2" d="M60.87,38.41c.89-.67,1.78-1.3,2.68-1.9-.93-7.68-7.38-18.18-14.42-23.45-3.93-2.94-7.22-3.63-9.19-2.32-1.07.72-2.47,1.75-3.52,2.5,1.69-1.26,4.87-.5,8.91,2.52C52.37,21,59.32,31.17,60.87,38.41Z"/><path class="cls-2" d="M67.3,34.2c.89-.5,1.78-1,2.67-1.4.57-8.54-4.68-19.73-11.72-25-3.63-2.71-7-3.32-9.54-2.11-1.13.55-2.6,1.36-3.71,1.94,2.31-1.28,5.68-.66,9.45,2.16C61.49,15.06,67.24,26,67.3,34.2Z"/><path class="cls-2" d="M63.5,5.54c7,5.27,11.59,16.76,10.17,25.67.88-.33,1.75-.63,2.61-.88,2-9.12-2-20.77-9.08-26C64,1.91,60.77,1.24,58,2.07l-.22.06c-1.12.34-2.58.88-3.69,1.25C56.79,2.38,60.12,3,63.5,5.54Z"/><path class="cls-2" d="M72.24,3.08c7,5.27,10.43,17.08,7.59,26.39.83-.15,1.66-.26,2.47-.34,3.41-9.38.48-21.26-6.56-26.53A11.44,11.44,0,0,0,67.83.14L66,.34,63.66.71A11,11,0,0,1,72.24,3.08Z"/><path class="cls-2" d="M80.44,2.48c7,5.27,9.35,17.16,5.17,26.57a20.84,20.84,0,0,1,2.26.22c4.71-9.35,2.82-21.21-4.22-26.47A12.27,12.27,0,0,0,78.19.44c-1-.15-2.43-.28-3.47-.39l-.93,0A12,12,0,0,1,80.44,2.48Z"/><path class="cls-2" d="M85.25,2.28c-.33-.13-.65-.26-1-.37Z"/><path class="cls-2" d="M90.85,30a15.46,15.46,0,0,1,2,.8c5.86-9,4.91-20.57-2.13-25.84a12.88,12.88,0,0,0-2.08-1.27c-1-.45-2.25-1-3.37-1.4a13.23,13.23,0,0,1,2.63,1.53C94.92,9.08,96.25,20.8,90.85,30Z"/><path class="cls-2" d="M95.38,32.33l0,0A16,16,0,0,1,97,33.74c6.37-7.77,6.65-17.88.94-23.47-1-1-2.49-2.19-3.59-3.09l-.09-.07,0,0C101.35,12.41,101.83,23.68,95.38,32.33Z"/></g></g></g></svg>